<svg width="32" height="32" viewBox="0 0 32 32" fill="none" xmlns="http://www.w3.org/2000/svg">
<g clip-path="url(#clip0_43_2)">
<path d="M31.9 17.775C31.8812 17.9375 31.8562 18.1 31.8375 18.2625C31.825 18.325 31.8187 18.3938 31.8062 18.4625C31.775 18.6625 31.7375 18.8625 31.7 19.0688C31.6937 19.1 31.6875 19.1313 31.6812 19.1625V19.1688C31.675 19.2 31.6687 19.2313 31.6687 19.2313C31.5125 19.975 31.3187 20.6625 31.0812 21.3375H0.912476C0.699976 20.725 0.518726 20.1 0.374976 19.4563C0.362476 19.425 0.356226 19.3938 0.349976 19.3625C0.343726 19.3313 0.337476 19.3 0.331226 19.275C0.231226 18.7813 0.149976 18.2875 0.0999756 17.7813H31.9V17.775Z" fill="#D91219"/>
<path d="M31.0875 21.3312C30.7562 22.2625 30.3437 23.15 29.8562 23.9937C29.6812 24.3 29.4937 24.5938 29.3 24.8875H2.69373C2.49998 24.5938 2.31873 24.3 2.14373 23.9937C1.65623 23.1562 1.24373 22.2562 0.912476 21.3312H31.0875Z" fill="#FBDC1D"/>
<path d="M29.3 24.8875C29.0437 25.2688 28.775 25.6438 28.4875 26C27.7687 26.9 26.9562 27.7188 26.0625 28.4438H5.93748C5.04373 27.7188 4.22498 26.9 3.51248 26C3.22498 25.6438 2.94998 25.2688 2.69373 24.8875H29.3Z" fill="#D91219"/>
<path d="M26.0625 28.4438C23.3063 30.6688 19.8125 32 16 32C12.1875 32 8.6875 30.6688 5.9375 28.4438H26.0625Z" fill="#FBDC1D"/>
<path d="M29.3 7.1125H2.70001C2.95626 6.73125 3.22501 6.35625 3.51251 6C4.23751 5.1 5.05626 4.275 5.95001 3.55625H26.0563C26.9563 4.28125 27.7688 5.1 28.4938 6C28.775 6.35625 29.05 6.725 29.3 7.1125Z" fill="#D91219"/>
<path d="M26.05 3.55625H5.94373C8.69373 1.33125 12.1875 0 16 0C19.8062 0 23.3062 1.33125 26.05 3.55625Z" fill="#FBDC1D"/>
<path d="M31.0875 10.6688H0.912476C1.23748 9.7375 1.64998 8.84375 2.14373 8C2.31873 7.7 2.49998 7.4 2.69998 7.1125H29.3062C29.5 7.4 29.6875 7.7 29.8625 8C30.3437 8.84375 30.7562 9.73125 31.0875 10.6688Z" fill="#FBDC1D"/>
<path d="M31.9 14.225H0.0999756C0.0999756 14.225 0.106226 14.2063 0.106226 14.1938V14.1875L0.112476 14.15C0.249976 12.9438 0.524976 11.7813 0.918726 10.6688H31.0937C31.2937 11.2188 31.45 11.7875 31.5875 12.3625C31.5937 12.375 31.5937 12.3938 31.6 12.4063C31.6 12.4063 31.6062 12.4375 31.6125 12.45C31.6937 12.8188 31.7625 13.1875 31.825 13.5625C31.825 13.5625 31.825 13.5875 31.8312 13.6C31.8312 13.6 31.8375 13.625 31.8375 13.6375C31.85 13.8313 31.8812 14.025 31.9 14.225Z" fill="#D91219"/>
<path d="M32 16C32 16.0812 32 16.1562 31.9937 16.2375C31.9937 16.2562 31.9937 16.275 31.9937 16.2875V16.3437L31.9875 16.3625C31.9875 16.3625 31.9875 16.3875 31.9875 16.4C31.975 16.8625 31.9437 17.325 31.9 17.7812H0.1C0.0875 17.6812 0.08125 17.5937 0.06875 17.5C0.0625 17.4437 0.05625 17.3937 0.05625 17.3437C0.025 17.0375 0.0125 16.7187 0 16.4C0 16.3875 0 16.375 0 16.375C0 16.35 0 16.3375 0 16.3375C0 16.25 0 16.175 0 16.0937C0 16.0937 0 16.075 0 16.0562V16C0 15.8937 0 15.7812 0.00625 15.675C0.00625 15.6625 0.00625 15.6562 0.00625 15.6562C0.00625 15.6312 0.00625 15.6187 0.00625 15.6187C0.0125 15.2875 0.03125 14.9625 0.0625 14.6437C0.0625 14.6312 0.06875 14.6125 0.06875 14.6125C0.06875 14.5812 0.075 14.5687 0.075 14.5562C0.0875 14.45 0.09375 14.3437 0.10625 14.2375V14.225H31.9062C31.9563 14.675 31.9875 15.1375 32 15.6062C32 15.6062 32.0063 15.6312 32 15.6437C32 15.6437 32.0062 15.6687 32.0062 15.6812C31.9937 15.7812 32 15.8937 32 16Z" fill="#FBDC1D"/>
</g>
<defs>
<clipPath id="clip0_43_2">
<rect width="32" height="32" fill="white"/>
</clipPath>
</defs>
</svg>
