<svg width="32" height="32" viewBox="0 0 32 32" fill="none" xmlns="http://www.w3.org/2000/svg">
<g clip-path="url(#clip0_43_1065)">
<path d="M2.8179 6.93404C1.78612 8.43162 1.002 10.1132 0.526535 11.9205H7.80463L2.8179 6.93404Z" fill="#29337A"/>
<path d="M11.5191 0.640434C9.67559 1.1773 7.96831 2.03398 6.46492 3.15136L11.5191 8.20551V0.640434Z" fill="#29337A"/>
<path d="M6.84081 29.1155C8.25097 30.1023 9.82645 30.8662 11.5191 31.3591V24.438L6.84081 29.1155Z" fill="#29337A"/>
<path d="M0.710159 20.7243C1.23919 22.4379 2.04987 24.0277 3.08591 25.4419L7.80356 20.7243H0.710159Z" fill="#29337A"/>
<path d="M3.08185 6.56268C2.99241 6.68495 2.90425 6.80899 2.81784 6.9343L7.80457 11.9208H0.526472C0.408519 12.3697 0.312252 12.8272 0.232941 13.2911H9.81078L3.08185 6.56268Z" fill="white"/>
<path d="M6.46965 28.8515C6.59139 28.9422 6.7165 29.0285 6.84074 29.1155L11.519 24.4378V31.3589C11.9685 31.4903 12.4249 31.6037 12.8893 31.6949V22.432L6.46965 28.8515Z" fill="white"/>
<path d="M0.354675 19.354C0.453983 19.8183 0.571193 20.2756 0.709886 20.7243H7.80335L3.0857 25.4419C3.59879 26.1429 4.16775 26.8008 4.78595 27.4092L12.8411 19.354H0.354675Z" fill="white"/>
<path d="M11.5191 0.64043V8.2055L6.46487 3.15163C5.76809 3.66978 5.11678 4.24502 4.51331 4.86776L12.8891 13.2436V0.304405C12.425 0.396146 11.9685 0.509843 11.5191 0.64043Z" fill="white"/>
<path d="M11.5191 20.676L11.471 20.7243H11.5191V20.676Z" fill="#D32030"/>
<path d="M12.8413 19.354H12.8893V19.3057L12.8413 19.354Z" fill="#D32030"/>
<path d="M18.9988 13.2908H18.9525V13.3373L18.9988 13.2908Z" fill="#D32030"/>
<path d="M11.5663 11.9208L11.5191 11.8733V11.9208H11.5663Z" fill="#D32030"/>
<path d="M12.8893 13.2435V13.2908H12.9366L12.8893 13.2435Z" fill="#D32030"/>
<path d="M20.3226 27.8172V31.4038C22.0372 30.9238 23.6359 30.1672 25.0658 29.1814L21.1795 25.2952C20.869 26.3863 20.7553 26.9504 20.3226 27.8172Z" fill="#29337A"/>
<path d="M21.1999 7.32788L25.4424 3.08543C23.9183 1.96926 22.1892 1.11866 20.3225 0.595711V4.28009C20.8215 5.27924 20.8634 6.03844 21.1999 7.32788Z" fill="#29337A"/>
<path d="M28.8484 25.5351C29.9168 24.0979 30.7495 22.4755 31.2904 20.7243H24.0376L28.8484 25.5351Z" fill="#29337A"/>
<path d="M31.4735 11.9208C30.9879 10.0753 30.1803 8.36217 29.116 6.84107L24.0357 11.9208H31.4735Z" fill="#29337A"/>
<path d="M22.134 19.6251L23.2334 20.7245L28.4963 25.9874C28.6158 25.8378 28.7345 25.6888 28.8487 25.5354L24.0378 20.7245H31.2907C31.4289 20.2761 31.5463 19.8186 31.6453 19.3542H22.2368C22.2214 19.5485 22.1524 19.4321 22.134 19.6251Z" fill="white"/>
<path d="M21.0337 8.13025L25.8037 3.35977C25.6842 3.26708 25.5645 3.17487 25.4424 3.08543L21.1999 7.32789C21.2439 7.49563 20.9928 7.95845 21.0337 8.13025Z" fill="white"/>
<path d="M20.3226 3.98527V0.595438C19.8737 0.469649 19.4167 0.363045 18.9523 0.2761V1.9296C19.4621 2.48235 19.9191 3.17662 20.3226 3.98527Z" fill="white"/>
<path d="M22.0261 13.2908H31.7673C31.6882 12.827 31.5917 12.3697 31.4738 11.9205H24.036L29.1162 6.8408C28.6168 6.12734 28.0617 5.45638 27.4554 4.83466L21.7333 10.5563C21.8874 11.5941 21.9563 12.1969 22.0261 13.2908Z" fill="white"/>
<path d="M20.9484 25.0635L25.066 29.1816C25.7509 28.7099 26.3959 28.185 26.9977 27.6151L21.5815 22.1986C21.4086 23.2003 21.2035 24.1679 20.9484 25.0635Z" fill="white"/>
<path d="M18.9525 29.8802V31.7231C19.4169 31.6367 19.8737 31.5295 20.3229 31.4037V27.8171C19.9191 28.6261 19.4621 29.3282 18.9525 29.8802Z" fill="white"/>
<path d="M21.7333 10.5563L27.4549 4.83466C26.9398 4.30563 26.3875 3.81328 25.8034 3.35977L21.3076 7.85638C21.5074 8.69157 21.5981 9.64756 21.7333 10.5563Z" fill="#E51D35"/>
<path d="M15.2014 0.0197264C15.468 0.00682317 15.7338 0 15.9997 0C15.7322 0 15.466 0.00682317 15.2014 0.0197264Z" fill="#E51D35"/>
<path d="M15.9997 32C15.7337 32 15.4679 31.9927 15.2019 31.9798C15.4665 31.9932 15.7322 32 15.9997 32Z" fill="#E51D35"/>
<path d="M15.9997 32C17.0092 32 17.995 31.9022 18.9525 31.7231V29.8802C18.112 30.7912 17.1288 32 15.9997 32Z" fill="#E51D35"/>
<path d="M31.767 13.2908H22.1524C22.2797 15.2975 22.2643 17.361 22.1064 19.354H31.6453C31.8762 18.2719 32 17.1508 32 16.0003C32 15.0761 31.9176 14.1722 31.767 13.2908Z" fill="#E51D35"/>
<path d="M22.134 19.6251C22.045 20.5704 21.7353 21.3071 21.5812 22.1989L26.9974 27.6151C27.5332 27.1072 28.0342 26.5641 28.496 25.9874L23.2334 20.7243L22.134 19.6251Z" fill="#E51D35"/>
<path d="M18.9525 2.04857V0.276372C17.9953 0.0977538 17.0096 0 15.9997 0C17.1288 0 18.112 1.13785 18.9525 2.04857Z" fill="#E51D35"/>
<path d="M20.3226 28.5092C20.7553 27.6422 21.1264 26.644 21.4372 25.5531L20.3226 24.4385V28.5092Z" fill="#29337A"/>
<path d="M21.5759 6.95193C21.2388 5.66249 20.8215 4.49025 20.3226 3.4911V8.20469L21.5759 6.95193Z" fill="#29337A"/>
<path d="M22.4445 19.9353C22.4626 19.7423 22.479 19.5485 22.4947 19.354H21.8631L22.4445 19.9353Z" fill="white"/>
<path d="M20.3226 8.20477V3.4909C19.9189 2.68225 19.4621 1.98751 18.9523 1.43523V10.2112L21.7042 7.45928C21.6628 7.28749 21.6193 7.11921 21.5758 6.95146L20.3226 8.20477Z" fill="white"/>
<path d="M18.9987 13.2908H22.5406C22.4712 12.1969 22.3605 11.1207 22.2067 10.0831L18.9987 13.2908Z" fill="white"/>
<path d="M18.9525 30.5646C19.4624 30.0118 19.9191 29.3176 20.3229 28.5089V24.4382L21.4375 25.5529C21.6931 24.6568 21.9076 23.6995 22.0809 22.6979L18.9526 19.5697L18.9525 30.5646Z" fill="white"/>
<path d="M18.9525 30.5646V19.5697L22.0807 22.6981C22.2345 21.806 22.3555 20.8809 22.4442 19.9353L21.8629 19.354H22.4944C22.6523 17.3609 22.6677 15.2974 22.5404 13.2908H18.9985L22.2063 10.0831C22.0711 9.17413 21.9039 8.29495 21.704 7.45948L18.9526 10.2114V1.43543C18.112 0.524438 17.1288 0 15.9997 0C15.7337 0 15.4679 0.00682317 15.2014 0.0197264C14.4145 0.0591116 13.6427 0.15592 12.8893 0.304476V13.2436L4.51329 4.86776C3.99865 5.39882 3.51995 5.96467 3.08184 6.56268L8.43993 11.9208L9.81071 13.2911H0.232934C0.0828914 14.1722 0 15.0761 0 16.0003C0 17.151 0.124303 18.2719 0.35467 19.354H12.8413L4.78615 27.4092C5.31363 27.9273 5.87522 28.4099 6.46972 28.8514L12.8891 22.432V31.6951C13.6424 31.8436 14.4147 31.9403 15.2017 31.9798C15.4677 31.9927 15.7335 32 15.9995 32C17.1288 32 18.112 31.4756 18.9525 30.5646Z" fill="#E51D35"/>
</g>
<defs>
<clipPath id="clip0_43_1065">
<rect width="32" height="32" fill="white"/>
</clipPath>
</defs>
</svg>
