<?xml version="1.0" encoding="UTF-8" standalone="no"?>
<svg
   width="752"
   height="640"
   viewBox="0 0 752 640"
   fill="none"
   version="1.1"
   id="svg16"
   sodipodi:docname="dance-en.svg"
   inkscape:version="1.3.1 (9b9bdc1480, 2023-11-25, custom)"
   xmlns:inkscape="http://www.inkscape.org/namespaces/inkscape"
   xmlns:sodipodi="http://sodipodi.sourceforge.net/DTD/sodipodi-0.dtd"
   xmlns="http://www.w3.org/2000/svg"
   xmlns:svg="http://www.w3.org/2000/svg">
  <defs
     id="defs16" />
  <sodipodi:namedview
     id="namedview16"
     pagecolor="#ffffff"
     bordercolor="#000000"
     borderopacity="0.25"
     inkscape:showpageshadow="2"
     inkscape:pageopacity="0.0"
     inkscape:pagecheckerboard="0"
     inkscape:deskcolor="#d1d1d1"
     showgrid="false"
     inkscape:zoom="0.79779412"
     inkscape:cx="384.81106"
     inkscape:cy="320.25806"
     inkscape:window-width="1536"
     inkscape:window-height="886"
     inkscape:window-x="0"
     inkscape:window-y="0"
     inkscape:window-maximized="1"
     inkscape:current-layer="svg16" />
  <path
     d="m 411.75,262.754 -30.746,-52.065 c -2.373,-3.585 -7.635,-3.585 -10.008,0 l -30.746,52.065 c -0.822,1.243 -2.077,2.135 -3.522,2.503 l -60.497,12.101 c -4.289,1.093 -5.958,6.296 -3.105,9.681 l 41.447,44.14 c 0.991,1.175 1.493,2.687 1.402,4.222 l -6.686,59.411 c -0.257,4.341 4.044,7.505 8.112,5.967 l 56.477,-24.698 c 1.367,-0.517 2.877,-0.517 4.244,0 l 56.477,24.698 c 4.068,1.538 8.369,-1.626 8.112,-5.967 l -6.686,-59.411 c -0.091,-1.535 0.411,-3.047 1.402,-4.222 l 41.447,-44.14 c 2.853,-3.385 1.184,-8.588 -3.105,-9.681 l -60.497,-12.101 c -1.445,-0.368 -2.7,-1.26 -3.522,-2.503 z"
     fill="#e4ccff"
     fill-opacity="0.7"
     id="path3" />
  <circle
     cx="88"
     cy="335"
     r="88"
     fill="#fcd19c"
     id="circle4" />
  <circle
     cx="264"
     cy="88"
     r="88"
     fill="#e4ccff"
     id="circle5" />
  <circle
     cx="264"
     cy="552"
     r="88"
     fill="#aff4c6"
     id="circle6" />
  <circle
     cx="664"
     cy="332"
     r="88"
     fill="#ffc7c2"
     id="circle7" />
  <circle
     cx="504"
     cy="552"
     r="88"
     fill="#bde3ff"
     id="circle8" />
  <circle
     cx="504"
     cy="88"
     r="88"
     fill="#ffe8a3"
     id="circle9" />
  <path
     d="m 378,381.693 c 0,-1.105 -0.895,-2 -2,-2 -1.105,0 -2,0.895 -2,2 z m -115.414,77.221 c 0.781,0.781 2.047,0.781 2.828,0 l 12.728,-12.728 c 0.781,-0.781 0.781,-2.047 0,-2.828 -0.781,-0.781 -2.047,-0.781 -2.828,0 L 264,454.672 252.686,443.358 c -0.781,-0.781 -2.047,-0.781 -2.828,0 -0.781,0.781 -0.781,2.047 0,2.828 z M 374,381.693 V 408 h 4 V 381.693 Z M 352,430 h -64 v 4 h 64 z m -90,26 v 1.5 h 4 V 456 Z m 26,-26 c -14.359,0 -26,11.641 -26,26 h 4 c 0,-12.15 9.85,-22 22,-22 z m 86,-22 c 0,12.15 -9.85,22 -22,22 v 4 c 14.359,0 26,-11.641 26,-26 z"
     fill="#b3b3b3"
     id="path11" />
  <path
     d="m 443.427,329.179 c -1.105,0 -2,0.895 -2,2 0,1.104 0.895,2 2,2 z m 127.487,3.414 c 0.781,-0.781 0.781,-2.047 0,-2.828 l -12.728,-12.728 c -0.781,-0.781 -2.047,-0.781 -2.828,0 -0.781,0.781 -0.781,2.047 0,2.828 l 11.314,11.314 -11.314,11.314 c -0.781,0.781 -0.781,2.047 0,2.828 0.781,0.781 2.047,0.781 2.828,0 z m -127.487,0.586 H 569.5 v -4 H 443.427 Z"
     fill="#b3b3b3"
     id="path12" />
  <path
     d="m 378,381.693 c 0,-1.105 -0.895,-2 -2,-2 -1.105,0 -2,0.895 -2,2 z m 124.586,77.221 c 0.781,0.781 2.047,0.781 2.828,0 l 12.728,-12.728 c 0.781,-0.781 0.781,-2.047 0,-2.828 -0.781,-0.781 -2.047,-0.781 -2.828,0 L 504,454.672 492.686,443.358 c -0.781,-0.781 -2.047,-0.781 -2.828,0 -0.781,0.781 -0.781,2.047 0,2.828 z M 374,381.693 V 408 h 4 V 381.693 Z M 400,434 h 80 v -4 h -80 z m 102,22 v 1.5 h 4 V 456 Z m -22,-22 c 12.15,0 22,9.85 22,22 h 4 c 0,-14.359 -11.641,-26 -26,-26 z M 374,408 c 0,14.359 11.641,26 26,26 v -4 c -12.15,0 -22,-9.85 -22,-22 z"
     fill="#b3b3b3"
     id="path13" />
  <path
     d="m 406.073,240.981 c -1.105,0 -2,0.895 -2,2 0,1.104 0.895,2 2,2 z m 99.341,-59.895 c -0.781,-0.781 -2.047,-0.781 -2.828,0 l -12.728,12.728 c -0.781,0.781 -0.781,2.047 0,2.828 0.781,0.781 2.047,0.781 2.828,0 L 504,185.328 l 11.314,11.314 c 0.781,0.781 2.047,0.781 2.828,0 0.781,-0.781 0.781,-2.047 0,-2.828 z m -99.341,63.895 H 480 v -4 h -73.927 z m 99.927,-26 V 182.5 h -4 v 36.481 z m -26,26 c 14.359,0 26,-11.641 26,-26 h -4 c 0,12.15 -9.85,22 -22,22 z"
     fill="#b3b3b3"
     id="path14" />
  <path
     d="m 309.975,337.401 c 1.105,0 2,-0.896 2,-2 0,-1.105 -0.895,-2 -2,-2 z m -128.889,-3.415 c -0.781,0.781 -0.781,2.048 0,2.829 l 12.728,12.728 c 0.781,0.781 2.047,0.781 2.828,0 0.781,-0.781 0.781,-2.048 0,-2.829 l -11.314,-11.313 11.314,-11.314 c 0.781,-0.781 0.781,-2.048 0,-2.829 -0.781,-0.781 -2.047,-0.781 -2.828,0 z m 128.889,-0.585 H 182.5 v 4 h 127.475 z"
     fill="#b3b3b3"
     id="path15" />
  <path
     d="m 345.289,246.061 c 1.105,0 2,-0.896 2,-2 0,-1.105 -0.895,-2 -2,-2 z m -79.875,-64.975 c -0.781,-0.781 -2.047,-0.781 -2.828,0 l -12.728,12.728 c -0.781,0.781 -0.781,2.047 0,2.828 0.781,0.781 2.047,0.781 2.828,0 L 264,185.328 l 11.314,11.314 c 0.781,0.781 2.047,0.781 2.828,0 0.781,-0.781 0.781,-2.047 0,-2.828 z m 79.875,60.975 H 288 v 4 h 57.289 z M 266,220.061 V 182.5 h -4 v 37.561 z m 22,22 c -12.15,0 -22,-9.85 -22,-22 h -4 c 0,14.359 11.641,26 26,26 z"
     fill="#b3b3b3"
     id="path16" />
  <text
     xml:space="preserve"
     style="font-style:normal;font-variant:normal;font-weight:normal;font-stretch:normal;font-size:18.6667px;font-family:sans-serif;-inkscape-font-specification:'sans-serif, Normal';font-variant-ligatures:normal;font-variant-caps:normal;font-variant-numeric:normal;font-variant-east-asian:normal;fill:#000000"
     x="329.76486"
     y="309.94943"
     id="text16"><tspan
       sodipodi:role="line"
       id="tspan16"
       x="329.76486"
       y="309.94943">Interesting</tspan><tspan
       sodipodi:role="line"
       x="329.76486"
       y="333.28281"
       id="tspan17">dance is...</tspan></text>
  <text
     xml:space="preserve"
     style="font-style:normal;font-variant:normal;font-weight:normal;font-stretch:normal;font-size:18.6667px;font-family:sans-serif;-inkscape-font-specification:'sans-serif, Normal';font-variant-ligatures:normal;font-variant-caps:normal;font-variant-numeric:normal;font-variant-east-asian:normal;fill:#000000"
     x="53.09108"
     y="341.95898"
     id="text19"><tspan
       sodipodi:role="line"
       x="53.09108"
       y="341.95898"
       id="tspan19">Musical</tspan></text>
  <text
     xml:space="preserve"
     style="font-style:normal;font-variant:normal;font-weight:normal;font-stretch:normal;font-size:18.6667px;font-family:sans-serif;-inkscape-font-specification:'sans-serif, Normal';font-variant-ligatures:normal;font-variant-caps:normal;font-variant-numeric:normal;font-variant-east-asian:normal;fill:#000000"
     x="617.06891"
     y="338.95898"
     id="text20"><tspan
       sodipodi:role="line"
       id="tspan20"
       x="617.06891"
       y="338.95898">Emotional</tspan></text>
  <text
     xml:space="preserve"
     style="font-style:normal;font-variant:normal;font-weight:normal;font-stretch:normal;font-size:18.6667px;font-family:sans-serif;-inkscape-font-specification:'sans-serif, Normal';font-variant-ligatures:normal;font-variant-caps:normal;font-variant-numeric:normal;font-variant-east-asian:normal;fill:#000000"
     x="428.06625"
     y="93.14975"
     id="text21"><tspan
       sodipodi:role="line"
       id="tspan21"
       x="428.06625"
       y="93.14975">Comprehensible</tspan></text>
  <text
     xml:space="preserve"
     style="font-style:normal;font-variant:normal;font-weight:normal;font-stretch:normal;font-size:18.6667px;font-family:sans-serif;-inkscape-font-specification:'sans-serif, Normal';font-variant-ligatures:normal;font-variant-caps:normal;font-variant-numeric:normal;font-variant-east-asian:normal;fill:#000000"
     x="208.08649"
     y="93.14975"
     id="text22"><tspan
       sodipodi:role="line"
       id="tspan22"
       x="208.08649"
       y="93.14975">Spectacular</tspan></text>
  <text
     xml:space="preserve"
     style="font-style:normal;font-variant:normal;font-weight:normal;font-stretch:normal;font-size:18.6667px;font-family:sans-serif;-inkscape-font-specification:'sans-serif, Normal';font-variant-ligatures:normal;font-variant-caps:normal;font-variant-numeric:normal;font-variant-east-asian:normal;fill:#000000"
     x="223.37622"
     y="558.95898"
     id="text23"><tspan
       sodipodi:role="line"
       id="tspan23"
       x="223.37622"
       y="558.95898">Variative</tspan></text>
  <text
     xml:space="preserve"
     style="font-style:normal;font-variant:normal;font-weight:normal;font-stretch:normal;font-size:18.6667px;font-family:sans-serif;-inkscape-font-specification:'sans-serif, Normal';font-variant-ligatures:normal;font-variant-caps:normal;font-variant-numeric:normal;font-variant-east-asian:normal;fill:#000000"
     x="483.20959"
     y="558.95898"
     id="text24"><tspan
       sodipodi:role="line"
       id="tspan24"
       x="483.20959"
       y="558.95898">Safe</tspan></text>
</svg>
