<?xml version="1.0" encoding="utf-8"?>
<svg width="752" height="640" viewBox="0 0 752 640" fill="none" xmlns="http://www.w3.org/2000/svg">
  <g>
    <rect width="752" height="640" />
    <path id="path3" d="M140.041 54.7538C140.041 54.7538 109.295 2.68875 109.295 2.68875C106.922 -0.896255 101.66 -0.896255 99.2866 2.68875C99.2866 2.68875 68.5406 54.7538 68.5406 54.7538C67.7186 55.9968 66.4636 56.8888 65.0186 57.2567C65.0186 57.2567 4.52161 69.3578 4.52161 69.3578C0.232605 70.4507 -1.4364 75.6537 1.4166 79.0388C1.4166 79.0388 42.8636 123.179 42.8636 123.179C43.8546 124.354 44.3566 125.866 44.2656 127.401C44.2656 127.401 37.5796 186.812 37.5796 186.812C37.3226 191.153 41.6236 194.317 45.6916 192.779C45.6916 192.779 102.169 168.081 102.169 168.081C103.536 167.564 105.046 167.564 106.413 168.081C106.413 168.081 162.89 192.779 162.89 192.779C166.958 194.317 171.259 191.153 171.002 186.812C171.002 186.812 164.316 127.401 164.316 127.401C164.225 125.866 164.727 124.354 165.718 123.179C165.718 123.179 207.165 79.0388 207.165 79.0388C210.018 75.6537 208.349 70.4507 204.06 69.3578C204.06 69.3578 143.563 57.2567 143.563 57.2567C142.118 56.8887 140.863 55.9967 140.041 54.7538C140.041 54.7538 140.041 54.7538 140.041 54.7538Z" fill="#E4CCFF" transform="translate(271.709 208)" />
    <path id="circle4" d="M0 88C0 39.3989 39.3989 0 88 0C136.601 0 176 39.3989 176 88C176 136.601 136.601 176 88 176C39.3989 176 0 136.601 0 88Z" fill="#FCD19C" fill-rule="evenodd" transform="translate(0 247)" />
    <path id="circle5" d="M0 88C0 39.3989 39.3989 0 88 0C136.601 0 176 39.3989 176 88C176 136.601 136.601 176 88 176C39.3989 176 0 136.601 0 88Z" fill="#E4CCFF" fill-rule="evenodd" transform="translate(176 0)" />
    <path id="circle6" d="M0 88C0 39.3989 39.3989 0 88 0C136.601 0 176 39.3989 176 88C176 136.601 136.601 176 88 176C39.3989 176 0 136.601 0 88Z" fill="#AFF4C6" fill-rule="evenodd" transform="translate(176 464)" />
    <path id="circle7" d="M0 88C0 39.3989 39.3989 0 88 0C136.601 0 176 39.3989 176 88C176 136.601 136.601 176 88 176C39.3989 176 0 136.601 0 88Z" fill="#FFC7C2" fill-rule="evenodd" transform="translate(576 244)" />
    <path id="circle8" d="M0 88C0 39.3989 39.3989 0 88 0C136.601 0 176 39.3989 176 88C176 136.601 136.601 176 88 176C39.3989 176 0 136.601 0 88Z" fill="#BDE3FF" fill-rule="evenodd" transform="translate(416 464)" />
    <path id="circle9" d="M0 88C0 39.3989 39.3989 0 88 0C136.601 0 176 39.3989 176 88C176 136.601 136.601 176 88 176C39.3989 176 0 136.601 0 88Z" fill="#FFE8A3" fill-rule="evenodd" transform="translate(416 0)" />
    <path id="path11" d="M128.728 2C128.728 0.894989 127.833 0 126.728 0C125.623 0 124.728 0.894989 124.728 2C124.728 2 128.728 2 128.728 2ZM13.3138 79.221C14.0948 80.002 15.3607 80.002 16.1418 79.221C16.1418 79.221 28.8698 66.493 28.8698 66.493C29.6508 65.712 29.6508 64.446 28.8698 63.665C28.0887 62.884 26.8228 62.884 26.0417 63.665C26.0417 63.665 14.7278 74.979 14.7278 74.979C14.7278 74.979 3.41376 63.665 3.41376 63.665C2.63275 62.884 1.36676 62.884 0.585754 63.665C-0.195251 64.446 -0.195251 65.712 0.585754 66.493C0.585754 66.493 13.3138 79.221 13.3138 79.221ZM124.728 2L124.728 28.307L128.728 28.307L128.728 2L124.728 2ZM102.728 50.307L38.7278 50.307L38.7278 54.307L102.728 54.307L102.728 50.307ZM12.7278 76.307L12.7278 77.807L16.7278 77.807L16.7278 76.307L12.7278 76.307ZM38.7278 50.307C24.3687 50.307 12.7278 61.948 12.7278 76.307C12.7278 76.307 16.7278 76.307 16.7278 76.307C16.7278 64.157 26.5778 54.307 38.7278 54.307C38.7278 54.307 38.7278 50.307 38.7278 50.307ZM124.728 28.307C124.728 40.457 114.878 50.307 102.728 50.307C102.728 50.307 102.728 54.307 102.728 54.307C117.087 54.307 128.728 42.666 128.728 28.307C128.728 28.307 124.728 28.307 124.728 28.307Z" fill="#B3B3B3" transform="translate(249.272 379.693)" />
    <path id="path12" d="M2 12.7278C0.894989 12.7278 0 13.6227 0 14.7278C0 15.8318 0.894989 16.7278 2 16.7278C2 16.7278 2 12.7278 2 12.7278ZM129.487 16.1418C130.268 15.3607 130.268 14.0948 129.487 13.3138C129.487 13.3138 116.759 0.585754 116.759 0.585754C115.978 -0.195251 114.712 -0.195251 113.931 0.585754C113.15 1.36676 113.15 2.63275 113.931 3.41376C113.931 3.41376 125.245 14.7278 125.245 14.7278C125.245 14.7278 113.931 26.0417 113.931 26.0417C113.15 26.8228 113.15 28.0887 113.931 28.8698C114.712 29.6508 115.978 29.6508 116.759 28.8698C116.759 28.8698 129.487 16.1418 129.487 16.1418ZM2 16.7278L128.073 16.7278L128.073 12.7278L2 12.7278L2 16.7278Z" fill="#B3B3B3" transform="translate(441.427 316.451)" />
    <path id="path13" d="M4 2C4 0.894989 3.10501 0 2 0C0.894989 0 0 0.894989 0 2C0 2 4 2 4 2ZM128.586 79.221C129.367 80.002 130.633 80.002 131.414 79.221C131.414 79.221 144.142 66.493 144.142 66.493C144.923 65.712 144.923 64.446 144.142 63.665C143.361 62.884 142.095 62.884 141.314 63.665C141.314 63.665 130 74.979 130 74.979C130 74.979 118.686 63.665 118.686 63.665C117.905 62.884 116.639 62.884 115.858 63.665C115.077 64.446 115.077 65.712 115.858 66.493C115.858 66.493 128.586 79.221 128.586 79.221ZM0 2L0 28.307L4 28.307L4 2L0 2ZM26 54.307L106 54.307L106 50.307L26 50.307L26 54.307ZM128 76.307L128 77.807L132 77.807L132 76.307L128 76.307ZM106 54.307C118.15 54.307 128 64.157 128 76.307C128 76.307 132 76.307 132 76.307C132 61.948 120.359 50.307 106 50.307C106 50.307 106 54.307 106 54.307ZM0 28.307C0 42.666 11.641 54.307 26 54.307C26 54.307 26 50.307 26 50.307C13.85 50.307 4 40.457 4 28.307C4 28.307 0 28.307 0 28.307Z" fill="#B3B3B3" transform="translate(374 379.693)" />
    <path id="path14" d="M2 60.4808C0.894989 60.4808 0 61.3758 0 62.4808C0 63.5848 0.894989 64.4808 2 64.4808C2 64.4808 2 60.4808 2 60.4808ZM101.341 0.585754C100.56 -0.195251 99.294 -0.195251 98.513 0.585754C98.513 0.585754 85.785 13.3138 85.785 13.3138C85.004 14.0948 85.004 15.3607 85.785 16.1418C86.566 16.9228 87.832 16.9228 88.613 16.1418C88.613 16.1418 99.927 4.82776 99.927 4.82776C99.927 4.82776 111.241 16.1418 111.241 16.1418C112.022 16.9228 113.288 16.9228 114.069 16.1418C114.85 15.3607 114.85 14.0948 114.069 13.3138C114.069 13.3138 101.341 0.585754 101.341 0.585754ZM2 64.4808L75.927 64.4808L75.927 60.4808L2 60.4808L2 64.4808ZM101.927 38.4808L101.927 1.99976L97.927 1.99976L97.927 38.4808L101.927 38.4808ZM75.927 64.4808C90.286 64.4808 101.927 52.8398 101.927 38.4808C101.927 38.4808 97.927 38.4808 97.927 38.4808C97.927 50.6308 88.077 60.4808 75.927 60.4808C75.927 60.4808 75.927 64.4808 75.927 64.4808Z" fill="#B3B3B3" transform="translate(404.073 180.5)" />
    <path id="path15" d="M129.475 16.7288C130.58 16.7288 131.475 15.8328 131.475 14.7288C131.475 13.6237 130.58 12.7288 129.475 12.7288C129.475 12.7288 129.475 16.7288 129.475 16.7288ZM0.585754 13.3138C-0.195251 14.0948 -0.195251 15.3618 0.585754 16.1428C0.585754 16.1428 13.3138 28.8708 13.3138 28.8708C14.0948 29.6518 15.3607 29.6518 16.1418 28.8708C16.9228 28.0898 16.9228 26.8228 16.1418 26.0417C16.1418 26.0417 4.82776 14.7288 4.82776 14.7288C4.82776 14.7288 16.1418 3.41476 16.1418 3.41476C16.9228 2.63376 16.9228 1.36676 16.1418 0.585754C15.3607 -0.195251 14.0948 -0.195251 13.3138 0.585754C13.3138 0.585754 0.585754 13.3138 0.585754 13.3138ZM129.475 12.7288L1.99976 12.7288L1.99976 16.7288L129.475 16.7288L129.475 12.7288Z" fill="#B3B3B3" transform="translate(180.5 320.672)" />
    <path id="path16" d="M96.0168 65.5608C97.1218 65.5608 98.0168 64.6648 98.0168 63.5608C98.0168 62.4558 97.1218 61.5608 96.0168 61.5608C96.0168 61.5608 96.0168 65.5608 96.0168 65.5608ZM16.1418 0.585754C15.3607 -0.195251 14.0948 -0.195251 13.3138 0.585754C13.3138 0.585754 0.585754 13.3138 0.585754 13.3138C-0.195251 14.0948 -0.195251 15.3607 0.585754 16.1418C1.36676 16.9228 2.63275 16.9228 3.41376 16.1418C3.41376 16.1418 14.7278 4.82776 14.7278 4.82776C14.7278 4.82776 26.0417 16.1418 26.0417 16.1418C26.8228 16.9228 28.0887 16.9228 28.8698 16.1418C29.6508 15.3607 29.6508 14.0948 28.8698 13.3138C28.8698 13.3138 16.1418 0.585754 16.1418 0.585754ZM96.0168 61.5608L38.7278 61.5608L38.7278 65.5608L96.0168 65.5608L96.0168 61.5608ZM16.7278 39.5608L16.7278 1.99976L12.7278 1.99976L12.7278 39.5608L16.7278 39.5608ZM38.7278 61.5608C26.5778 61.5608 16.7278 51.7108 16.7278 39.5608C16.7278 39.5608 12.7278 39.5608 12.7278 39.5608C12.7278 53.9198 24.3687 65.5608 38.7278 65.5608C38.7278 65.5608 38.7278 61.5608 38.7278 61.5608Z" fill="#B3B3B3" transform="translate(249.272 180.5)" />
    <g id="text19" transform="translate(53.091 323.876)">
      <path d="M1.64519 4.50717L3.60482 4.50717L8.22137 15.7774L8.38087 15.7774L12.9929 4.50717L14.9525 4.50717L14.9525 18.0834L13.4167 18.0834L13.4167 7.7702L13.2845 7.7702L9.04168 18.0834L7.556 18.0834L3.31316 7.7702L3.181 7.7702L3.181 18.0834L1.64519 18.0834L1.64519 4.50717ZM24.4462 13.9226L24.4462 7.90236L26.0093 7.90236L26.0093 18.0834L24.4462 18.0834L24.4462 16.3607L24.3414 16.3607Q23.9813 17.1354 23.2248 17.6778Q22.4729 18.2155 21.3199 18.2155Q19.8843 18.2155 18.9546 17.2676Q18.0295 16.3197 18.0295 14.3692L18.0295 7.90236L19.5927 7.90236L19.5927 14.2643Q19.5927 15.3809 20.217 16.0417Q20.8459 16.7025 21.8212 16.7025Q22.4045 16.7025 23.0106 16.4063Q23.6168 16.1101 24.0315 15.4948Q24.4462 14.875 24.4462 13.9226ZM36.0884 10.181L34.6802 10.5775Q34.4751 10.0488 33.9921 9.584Q33.509 9.11916 32.479 9.11916Q31.5448 9.11916 30.925 9.54754Q30.3052 9.97593 30.3052 10.6322Q30.3052 11.2155 30.729 11.5528Q31.1574 11.89 32.0552 12.1179L33.5682 12.487Q36.2707 13.1524 36.2707 15.2442Q36.2707 16.1192 35.7694 16.8119Q35.2727 17.5 34.3749 17.9011Q33.4817 18.2976 32.2968 18.2976Q30.7382 18.2976 29.7173 17.6231Q28.6965 16.944 28.423 15.6452L29.9087 15.2715Q30.328 16.9167 32.2694 16.9167Q33.3632 16.9167 34.0103 16.4519Q34.6574 15.9825 34.6574 15.3262Q34.6574 14.2461 33.1444 13.8952L31.4491 13.4942Q30.05 13.166 29.3938 12.4688Q28.7421 11.7669 28.7421 10.7142Q28.7421 9.84833 29.2297 9.18752Q29.7173 8.52671 30.5604 8.14845Q31.4081 7.7702 32.479 7.7702Q33.9921 7.7702 34.858 8.43556Q35.7238 9.09637 36.0884 10.181ZM38.6318 18.0834L38.6318 7.90236L40.195 7.90236L40.195 18.0834L38.6318 18.0834ZM39.4293 6.20249Q38.9691 6.20249 38.6409 5.89259Q38.3128 5.58269 38.3128 5.14519Q38.3128 4.70769 38.6409 4.39779Q38.9691 4.08334 39.4293 4.08334Q39.8851 4.08334 40.2132 4.39779Q40.5413 4.70769 40.5413 5.14519Q40.5413 5.58269 40.2132 5.89259Q39.8851 6.20249 39.4293 6.20249ZM47.1979 18.2976Q45.7669 18.2976 44.7324 17.6231Q43.6979 16.944 43.1373 15.7591Q42.5813 14.5697 42.5813 13.0476Q42.5813 11.4935 43.1556 10.3041Q43.7298 9.1146 44.7597 8.44468Q45.7897 7.7702 47.1705 7.7702Q48.2461 7.7702 49.1074 8.16668Q49.9687 8.56317 50.5156 9.27866Q51.067 9.99416 51.1992 10.9512L49.636 10.9512Q49.4583 10.2539 48.8431 9.71616Q48.2324 9.17385 47.1979 9.17385Q45.8261 9.17385 44.9876 10.2175Q44.149 11.2611 44.149 12.9929Q44.149 14.7611 44.9739 15.8275Q45.8033 16.8894 47.1979 16.8894Q48.1139 16.8894 48.7656 16.42Q49.4173 15.9506 49.636 15.112L51.1992 15.112Q51.067 16.0144 50.5475 16.7344Q50.028 17.4545 49.1758 17.8783Q48.3235 18.2976 47.1979 18.2976ZM56.479 18.3203Q55.5083 18.3203 54.7199 17.9558Q53.9315 17.5866 53.4667 16.8894Q53.0018 16.1875 53.0018 15.194Q53.0018 14.319 53.3482 13.7722Q53.6945 13.2253 54.2687 12.9154Q54.8475 12.6009 55.5448 12.446Q56.2466 12.291 56.953 12.1953Q57.8827 12.0768 58.4615 12.0176Q59.0448 11.9538 59.3091 11.8034Q59.578 11.6485 59.578 11.2702L59.578 11.2155Q59.578 10.2357 59.0448 9.69338Q58.5116 9.1465 57.4315 9.1465Q56.3104 9.1465 55.6724 9.63869Q55.0389 10.1309 54.7792 10.6869L53.2935 10.1537Q53.6945 9.22853 54.3599 8.709Q55.0252 8.18491 55.8182 7.97983Q56.6112 7.7702 57.3768 7.7702Q57.869 7.7702 58.507 7.88869Q59.1496 8.00262 59.7466 8.36265Q60.3482 8.71811 60.7447 9.44273Q61.1457 10.1628 61.1457 11.375L61.1457 18.0834L59.578 18.0834L59.578 16.7025L59.5005 16.7025Q59.341 17.0352 58.9673 17.4134Q58.5982 17.7917 57.9829 18.056Q57.3677 18.3203 56.479 18.3203ZM56.716 16.9167Q57.6457 16.9167 58.2837 16.5521Q58.9217 16.1875 59.2499 15.6133Q59.578 15.0345 59.578 14.3965L59.578 12.9655Q59.4823 13.084 59.145 13.1797Q58.8124 13.2754 58.3749 13.3483Q57.9419 13.4167 57.5318 13.4668Q57.1262 13.517 56.8755 13.5489Q56.2648 13.6309 55.7362 13.8086Q55.2121 13.9818 54.8885 14.3282Q54.5695 14.6745 54.5695 15.2715Q54.5695 16.0873 55.1756 16.502Q55.7818 16.9167 56.716 16.9167ZM65.57 4.50717L65.57 18.0834L64.0069 18.0834L64.0069 4.50717L65.57 4.50717Z" fill="#000000" />
    </g>
    <g id="text20" transform="translate(615.597 320.876)">
      <path d="M1.64519 18.0834L1.64519 4.50717L9.83921 4.50717L9.83921 5.96551L3.28581 5.96551L3.28581 10.5547L9.41082 10.5547L9.41082 12.013L3.28581 12.013L3.28581 16.625L9.94403 16.625L9.94403 18.0834L1.64519 18.0834ZM12.5939 18.0834L12.5939 7.90236L14.1069 7.90236L14.1069 9.49286L14.2391 9.49286Q14.5581 8.6771 15.2645 8.22593Q15.9754 7.7702 16.9689 7.7702Q17.9761 7.7702 18.6505 8.22593Q19.325 8.6771 19.6987 9.49286L19.8081 9.49286Q20.2 8.70444 20.9793 8.2396Q21.7632 7.7702 22.8569 7.7702Q24.2196 7.7702 25.09 8.62241Q25.9605 9.47463 25.9605 11.2702L25.9605 18.0834L24.3927 18.0834L24.3927 11.2702Q24.3927 10.14 23.7775 9.65692Q23.1623 9.17385 22.3237 9.17385Q21.2528 9.17385 20.6603 9.82098Q20.0724 10.4681 20.0724 11.4525L20.0724 18.0834L18.4819 18.0834L18.4819 11.1107Q18.4819 10.2403 17.9168 9.70705Q17.3563 9.17385 16.4676 9.17385Q15.8569 9.17385 15.3283 9.50197Q14.8042 9.82554 14.4806 10.3998Q14.157 10.9694 14.157 11.7214L14.157 18.0834L12.5939 18.0834ZM32.9592 18.2976Q31.5784 18.2976 30.5393 17.6413Q29.5048 16.9851 28.9215 15.8047Q28.3427 14.6244 28.3427 13.0476Q28.3427 11.4525 28.9215 10.2676Q29.5048 9.0827 30.5393 8.42645Q31.5784 7.7702 32.9592 7.7702Q34.3355 7.7702 35.3746 8.42645Q36.4137 9.0827 36.9924 10.2676Q37.5712 11.4525 37.5712 13.0476Q37.5712 14.6244 36.9924 15.8047Q36.4137 16.9851 35.3746 17.6413Q34.3355 18.2976 32.9592 18.2976ZM32.9592 16.8894Q34.0074 16.8894 34.6819 16.3561Q35.3564 15.8184 35.6799 14.9434Q36.0081 14.0684 36.0081 13.0476Q36.0081 12.0267 35.6799 11.1472Q35.3564 10.263 34.6819 9.72072Q34.0074 9.17385 32.9592 9.17385Q31.911 9.17385 31.232 9.72072Q30.5575 10.263 30.234 11.1472Q29.9104 12.0267 29.9104 13.0476Q29.9104 14.0684 30.234 14.9434Q30.5575 15.8184 31.232 16.3561Q31.911 16.8894 32.9592 16.8894ZM44.0956 18.2976Q42.6646 18.2976 41.6301 17.6231Q40.5956 16.944 40.035 15.7591Q39.4791 14.5697 39.4791 13.0476Q39.4791 11.4935 40.0533 10.3041Q40.6275 9.1146 41.6574 8.44468Q42.6874 7.7702 44.0683 7.7702Q45.1438 7.7702 46.0051 8.16668Q46.8664 8.56317 47.4133 9.27866Q47.9648 9.99416 48.0969 10.9512L46.5338 10.9512Q46.356 10.2539 45.7408 9.71616Q45.1301 9.17385 44.0956 9.17385Q42.7239 9.17385 41.8853 10.2175Q41.0468 11.2611 41.0468 12.9929Q41.0468 14.7611 41.8716 15.8275Q42.7011 16.8894 44.0956 16.8894Q45.0116 16.8894 45.6633 16.42Q46.315 15.9506 46.5338 15.112L48.0969 15.112Q47.9648 16.0144 47.4452 16.7344Q46.9257 17.4545 46.0735 17.8783Q45.2213 18.2976 44.0956 18.2976ZM50.3781 18.0834L50.3781 7.90236L51.9412 7.90236L51.9412 18.0834L50.3781 18.0834ZM51.1756 6.20249Q50.7153 6.20249 50.3872 5.89259Q50.059 5.58269 50.059 5.14519Q50.059 4.70769 50.3872 4.39779Q50.7153 4.08334 51.1756 4.08334Q51.6313 4.08334 51.9594 4.39779Q52.2876 4.70769 52.2876 5.14519Q52.2876 5.58269 51.9594 5.89259Q51.6313 6.20249 51.1756 6.20249ZM58.9441 18.2976Q57.5633 18.2976 56.5242 17.6413Q55.4897 16.9851 54.9064 15.8047Q54.3276 14.6244 54.3276 13.0476Q54.3276 11.4525 54.9064 10.2676Q55.4897 9.0827 56.5242 8.42645Q57.5633 7.7702 58.9441 7.7702Q60.3204 7.7702 61.3595 8.42645Q62.3986 9.0827 62.9773 10.2676Q63.5561 11.4525 63.5561 13.0476Q63.5561 14.6244 62.9773 15.8047Q62.3986 16.9851 61.3595 17.6413Q60.3204 18.2976 58.9441 18.2976ZM58.9441 16.8894Q59.9923 16.8894 60.6668 16.3561Q61.3413 15.8184 61.6648 14.9434Q61.993 14.0684 61.993 13.0476Q61.993 12.0267 61.6648 11.1472Q61.3413 10.263 60.6668 9.72072Q59.9923 9.17385 58.9441 9.17385Q57.8959 9.17385 57.2169 9.72072Q56.5424 10.263 56.2189 11.1472Q55.8953 12.0267 55.8953 13.0476Q55.8953 14.0684 56.2189 14.9434Q56.5424 15.8184 57.2169 16.3561Q57.8959 16.8894 58.9441 16.8894ZM67.5056 11.9584L67.5056 18.0834L65.9425 18.0834L65.9425 7.90236L67.4555 7.90236L67.4555 9.49286L67.5877 9.49286Q67.9431 8.71811 68.6723 8.24416Q69.4015 7.7702 70.559 7.7702Q72.0994 7.7702 73.0519 8.71811Q74.0043 9.66603 74.0043 11.612L74.0043 18.0834L72.4412 18.0834L72.4412 11.7214Q72.4412 10.5182 71.8168 9.84833Q71.1925 9.17385 70.1078 9.17385Q68.9867 9.17385 68.2439 9.90301Q67.5056 10.6276 67.5056 11.9584ZM79.8654 18.3203Q78.8947 18.3203 78.1063 17.9558Q77.3179 17.5866 76.8531 16.8894Q76.3882 16.1875 76.3882 15.194Q76.3882 14.319 76.7346 13.7722Q77.0809 13.2253 77.6552 12.9154Q78.2339 12.6009 78.9312 12.446Q79.633 12.291 80.3394 12.1953Q81.2691 12.0768 81.8479 12.0176Q82.4312 11.9538 82.6955 11.8034Q82.9644 11.6485 82.9644 11.2702L82.9644 11.2155Q82.9644 10.2357 82.4312 9.69338Q81.898 9.1465 80.8179 9.1465Q79.6968 9.1465 79.0588 9.63869Q78.4253 10.1309 78.1656 10.6869L76.6799 10.1537Q77.0809 9.22853 77.7463 8.709Q78.4117 8.18491 79.2046 7.97983Q79.9976 7.7702 80.7632 7.7702Q81.2554 7.7702 81.8934 7.88869Q82.536 8.00262 83.133 8.36265Q83.7346 8.71811 84.1311 9.44273Q84.5321 10.1628 84.5321 11.375L84.5321 18.0834L82.9644 18.0834L82.9644 16.7025L82.8869 16.7025Q82.7274 17.0352 82.3537 17.4134Q81.9846 17.7917 81.3693 18.056Q80.7541 18.3203 79.8654 18.3203ZM80.1024 16.9167Q81.0321 16.9167 81.6701 16.5521Q82.3082 16.1875 82.6363 15.6133Q82.9644 15.0345 82.9644 14.3965L82.9644 12.9655Q82.8687 13.084 82.5315 13.1797Q82.1988 13.2754 81.7613 13.3483Q81.3283 13.4167 80.9182 13.4668Q80.5126 13.517 80.2619 13.5489Q79.6512 13.6309 79.1226 13.8086Q78.5985 13.9818 78.2749 14.3282Q77.9559 14.6745 77.9559 15.2715Q77.9559 16.0873 78.562 16.502Q79.1682 16.9167 80.1024 16.9167ZM88.9564 4.50717L88.9564 18.0834L87.3933 18.0834L87.3933 4.50717L88.9564 4.50717Z" fill="#000000" />
    </g>
    <g id="text21" transform="translate(439.724 75.066)">
      <path d="M12.569 8.75002L10.9238 8.75002Q10.7233 7.80665 10.1582 7.16408Q9.59767 6.5215 8.80015 6.19337Q8.00718 5.86069 7.10483 5.86069Q5.87436 5.86069 4.87631 6.48504Q3.87826 7.10483 3.29037 8.32163Q2.70248 9.53387 2.70248 11.2975Q2.70248 13.0567 3.29037 14.2735Q3.87826 15.4857 4.87631 16.1101Q5.87436 16.7298 7.10483 16.7298Q8.00718 16.7298 8.80015 16.4017Q9.59767 16.069 10.1582 15.4265Q10.7233 14.7839 10.9238 13.8405L12.569 13.8405Q12.3184 15.2351 11.5391 16.224Q10.7643 17.2129 9.6159 17.7416Q8.47202 18.2702 7.10483 18.2702Q5.3685 18.2702 4.01498 17.4226Q2.66602 16.5703 1.88672 15.0072Q1.11198 13.444 1.11198 11.2975Q1.11198 9.1465 1.88672 7.58335Q2.66602 6.02019 4.01498 5.17254Q5.3685 4.32032 7.10483 4.32032Q8.47202 4.32032 9.6159 4.84897Q10.7643 5.37761 11.5391 6.37111Q12.3184 7.36004 12.569 8.75002ZM19.1448 18.2976Q17.7639 18.2976 16.7249 17.6413Q15.6904 16.9851 15.107 15.8047Q14.5283 14.6244 14.5283 13.0476Q14.5283 11.4525 15.107 10.2676Q15.6904 9.0827 16.7249 8.42645Q17.7639 7.7702 19.1448 7.7702Q20.5211 7.7702 21.5602 8.42645Q22.5992 9.0827 23.178 10.2676Q23.7568 11.4525 23.7568 13.0476Q23.7568 14.6244 23.178 15.8047Q22.5992 16.9851 21.5602 17.6413Q20.5211 18.2976 19.1448 18.2976ZM19.1448 16.8894Q20.193 16.8894 20.8675 16.3561Q21.5419 15.8184 21.8655 14.9434Q22.1936 14.0684 22.1936 13.0476Q22.1936 12.0267 21.8655 11.1472Q21.5419 10.263 20.8675 9.72072Q20.193 9.17385 19.1448 9.17385Q18.0966 9.17385 17.4176 9.72072Q16.7431 10.263 16.4195 11.1472Q16.096 12.0267 16.096 13.0476Q16.096 14.0684 16.4195 14.9434Q16.7431 15.8184 17.4176 16.3561Q18.0966 16.8894 19.1448 16.8894ZM26.1432 18.0834L26.1432 7.90236L27.6562 7.90236L27.6562 9.49286L27.7883 9.49286Q28.1074 8.6771 28.8137 8.22593Q29.5247 7.7702 30.5182 7.7702Q31.5253 7.7702 32.1998 8.22593Q32.8743 8.6771 33.248 9.49286L33.3574 9.49286Q33.7493 8.70444 34.5286 8.2396Q35.3124 7.7702 36.4062 7.7702Q37.7688 7.7702 38.6393 8.62241Q39.5097 9.47463 39.5097 11.2702L39.5097 18.0834L37.942 18.0834L37.942 11.2702Q37.942 10.14 37.3268 9.65692Q36.7115 9.17385 35.873 9.17385Q34.802 9.17385 34.2096 9.82098Q33.6217 10.4681 33.6217 11.4525L33.6217 18.0834L32.0312 18.0834L32.0312 11.1107Q32.0312 10.2403 31.4661 9.70705Q30.9055 9.17385 30.0169 9.17385Q29.4062 9.17385 28.8775 9.50197Q28.3534 9.82554 28.0299 10.3998Q27.7063 10.9694 27.7063 11.7214L27.7063 18.0834L26.1432 18.0834ZM42.3705 21.9024L42.3705 7.90236L43.8835 7.90236L43.8835 9.5202L44.0703 9.5202Q44.239 9.25588 44.5489 8.84116Q44.8587 8.42645 45.4375 8.09832Q46.0163 7.7702 47.0098 7.7702Q48.2995 7.7702 49.2793 8.41278Q50.2591 9.05536 50.8106 10.2357Q51.362 11.416 51.362 13.0202Q51.362 14.638 50.8106 15.8229Q50.2591 17.0033 49.2839 17.6504Q48.3086 18.2976 47.0371 18.2976Q46.0573 18.2976 45.4649 17.9694Q44.877 17.6413 44.558 17.222Q44.239 16.7982 44.0703 16.5202L43.9336 16.5202L43.9336 21.9024L42.3705 21.9024ZM43.9108 12.9929Q43.9108 14.7246 44.6628 15.8093Q45.4147 16.8894 46.8275 16.8894Q47.8073 16.8894 48.4636 16.3698Q49.1244 15.8503 49.4571 14.9662Q49.7943 14.0775 49.7943 12.9929Q49.7943 11.9173 49.4662 11.056Q49.1381 10.1901 48.4772 9.68426Q47.821 9.17385 46.8275 9.17385Q45.392 9.17385 44.6491 10.2311Q43.9108 11.2839 43.9108 12.9929ZM53.7455 18.0834L53.7455 7.90236L55.2585 7.90236L55.2585 9.43817L55.3633 9.43817Q55.6413 8.68166 56.3705 8.21225Q57.0997 7.74285 58.0157 7.74285Q58.1888 7.74285 58.4441 7.75197Q58.7038 7.75653 58.836 7.7702L58.836 9.36069Q58.7585 9.33791 58.476 9.29689Q58.1934 9.25588 57.8835 9.25588Q56.767 9.25588 56.0378 9.93036Q55.3086 10.6048 55.3086 11.6393L55.3086 18.0834L53.7455 18.0834ZM64.6445 18.2976Q63.1725 18.2976 62.1061 17.6459Q61.0442 16.9896 60.47 15.8138Q59.8958 14.638 59.8958 13.0703Q59.8958 11.5072 60.47 10.3132Q61.0442 9.1146 62.0742 8.44468Q63.1041 7.7702 64.485 7.7702Q65.2825 7.7702 66.0572 8.03452Q66.832 8.29884 67.4654 8.89129Q68.1035 9.48374 68.4817 10.459Q68.86 11.4343 68.86 12.8607L68.86 13.5215L61.468 13.5215Q61.5227 15.153 62.3932 16.0235Q63.2636 16.8894 64.6445 16.8894Q65.565 16.8894 66.2259 16.4929Q66.8912 16.0964 67.1874 15.2989L68.7005 15.7227Q68.345 16.8757 67.2695 17.5866Q66.194 18.2976 64.6445 18.2976ZM61.468 12.1725L67.2695 12.1725Q67.2695 10.8783 66.513 10.0261Q65.7564 9.17385 64.485 9.17385Q63.5917 9.17385 62.9355 9.59312Q62.2792 10.0078 61.901 10.696Q61.5227 11.3796 61.468 12.1725ZM72.8087 11.9584L72.8087 18.0834L71.2455 18.0834L71.2455 7.90236L72.7585 7.90236L72.7585 9.49286L72.8907 9.49286Q73.2462 8.71811 73.9753 8.24416Q74.7045 7.7702 75.8621 7.7702Q77.4024 7.7702 78.3549 8.71811Q79.3074 9.66603 79.3074 11.612L79.3074 18.0834L77.7442 18.0834L77.7442 11.7214Q77.7442 10.5182 77.1199 9.84833Q76.4955 9.17385 75.4109 9.17385Q74.2898 9.17385 73.5469 9.90301Q72.8087 10.6276 72.8087 11.9584ZM89.384 10.181L87.9758 10.5775Q87.7707 10.0488 87.2876 9.584Q86.8045 9.11916 85.7746 9.11916Q84.8403 9.11916 84.2206 9.54754Q83.6008 9.97593 83.6008 10.6322Q83.6008 11.2155 84.0246 11.5528Q84.453 11.89 85.3508 12.1179L86.8638 12.487Q89.5663 13.1524 89.5663 15.2442Q89.5663 16.1192 89.065 16.8119Q88.5682 17.5 87.6704 17.9011Q86.7772 18.2976 85.5923 18.2976Q84.0337 18.2976 83.0129 17.6231Q81.992 16.944 81.7186 15.6452L83.2043 15.2715Q83.6236 16.9167 85.565 16.9167Q86.6587 16.9167 87.3058 16.4519Q87.953 15.9825 87.953 15.3262Q87.953 14.2461 86.44 13.8952L84.7446 13.4942Q83.3456 13.166 82.6893 12.4688Q82.0376 11.7669 82.0376 10.7142Q82.0376 9.84833 82.5252 9.18752Q83.0129 8.52671 83.856 8.14845Q84.7036 7.7702 85.7746 7.7702Q87.2876 7.7702 88.1535 8.43556Q89.0194 9.09637 89.384 10.181ZM91.9274 18.0834L91.9274 7.90236L93.4905 7.90236L93.4905 18.0834L91.9274 18.0834ZM92.7249 6.20249Q92.2646 6.20249 91.9365 5.89259Q91.6084 5.58269 91.6084 5.14519Q91.6084 4.70769 91.9365 4.39779Q92.2646 4.08334 92.7249 4.08334Q93.1806 4.08334 93.5087 4.39779Q93.8369 4.70769 93.8369 5.14519Q93.8369 5.58269 93.5087 5.89259Q93.1806 6.20249 92.7249 6.20249ZM96.5696 18.0834L96.5696 4.50717L98.1327 4.50717L98.1327 9.5202L98.2649 9.5202Q98.4381 9.25588 98.7434 8.84116Q99.0533 8.42645 99.6321 8.09832Q100.215 7.7702 101.209 7.7702Q102.494 7.7702 103.474 8.41278Q104.458 9.05536 105.005 10.2357Q105.557 11.416 105.557 13.0202Q105.557 14.638 105.005 15.8229Q104.458 17.0033 103.483 17.6504Q102.508 18.2976 101.236 18.2976Q100.252 18.2976 99.664 17.9694Q99.0761 17.6413 98.7571 17.222Q98.4381 16.7982 98.2649 16.5202L98.0781 16.5202L98.0781 18.0834L96.5696 18.0834ZM98.1054 12.9929Q98.1054 14.7246 98.8574 15.8093Q99.6093 16.8894 101.022 16.8894Q102.002 16.8894 102.663 16.3698Q103.324 15.8503 103.656 14.9662Q103.993 14.0775 103.993 12.9929Q103.993 11.9173 103.665 11.056Q103.337 10.1901 102.676 9.68426Q102.016 9.17385 101.022 9.17385Q99.5911 9.17385 98.8482 10.2311Q98.1054 11.2839 98.1054 12.9929ZM109.506 4.50717L109.506 18.0834L107.943 18.0834L107.943 4.50717L109.506 4.50717ZM116.641 18.2976Q115.169 18.2976 114.102 17.6459Q113.041 16.9896 112.466 15.8138Q111.892 14.638 111.892 13.0703Q111.892 11.5072 112.466 10.3132Q113.041 9.1146 114.07 8.44468Q115.1 7.7702 116.481 7.7702Q117.279 7.7702 118.054 8.03452Q118.828 8.29884 119.462 8.89129Q120.1 9.48374 120.478 10.459Q120.856 11.4343 120.856 12.8607L120.856 13.5215L113.464 13.5215Q113.519 15.153 114.389 16.0235Q115.26 16.8894 116.641 16.8894Q117.561 16.8894 118.222 16.4929Q118.888 16.0964 119.184 15.2989L120.697 15.7227Q120.341 16.8757 119.266 17.5866Q118.19 18.2976 116.641 18.2976ZM113.464 12.1725L119.266 12.1725Q119.266 10.8783 118.509 10.0261Q117.753 9.17385 116.481 9.17385Q115.588 9.17385 114.932 9.59312Q114.276 10.0078 113.897 10.696Q113.519 11.3796 113.464 12.1725Z" fill="#000000" />
    </g>
    <g id="text22" transform="translate(202.95 75.066)">
      <path d="M1.64519 18.0834L1.64519 4.50717L9.83921 4.50717L9.83921 5.96551L3.28581 5.96551L3.28581 10.5547L9.41082 10.5547L9.41082 12.013L3.28581 12.013L3.28581 16.625L9.94403 16.625L9.94403 18.0834L1.64519 18.0834ZM19.8081 10.181L18.3999 10.5775Q18.1948 10.0488 17.7117 9.584Q17.2287 9.11916 16.1987 9.11916Q15.2645 9.11916 14.6447 9.54754Q14.0249 9.97593 14.0249 10.6322Q14.0249 11.2155 14.4487 11.5528Q14.8771 11.89 15.7749 12.1179L17.2879 12.487Q19.9904 13.1524 19.9904 15.2442Q19.9904 16.1192 19.4891 16.8119Q18.9923 17.5 18.0946 17.9011Q17.2013 18.2976 16.0164 18.2976Q14.4578 18.2976 13.437 17.6231Q12.4162 16.944 12.1427 15.6452L13.6284 15.2715Q14.0477 16.9167 15.9891 16.9167Q17.0828 16.9167 17.73 16.4519Q18.3771 15.9825 18.3771 15.3262Q18.3771 14.2461 16.8641 13.8952L15.1688 13.4942Q13.7697 13.166 13.1134 12.4688Q12.4617 11.7669 12.4617 10.7142Q12.4617 9.84833 12.9494 9.18752Q13.437 8.52671 14.2801 8.14845Q15.1278 7.7702 16.1987 7.7702Q17.7117 7.7702 18.5776 8.43556Q19.4435 9.09637 19.8081 10.181ZM22.3515 21.9024L22.3515 7.90236L23.8645 7.90236L23.8645 9.5202L24.0514 9.5202Q24.22 9.25588 24.5299 8.84116Q24.8398 8.42645 25.4185 8.09832Q25.9973 7.7702 26.9908 7.7702Q28.2805 7.7702 29.2604 8.41278Q30.2402 9.05536 30.7916 10.2357Q31.343 11.416 31.343 13.0202Q31.343 14.638 30.7916 15.8229Q30.2402 17.0033 29.2649 17.6504Q28.2896 18.2976 27.0182 18.2976Q26.0383 18.2976 25.4459 17.9694Q24.858 17.6413 24.539 17.222Q24.22 16.7982 24.0514 16.5202L23.9146 16.5202L23.9146 21.9024L22.3515 21.9024ZM23.8919 12.9929Q23.8919 14.7246 24.6438 15.8093Q25.3958 16.8894 26.8085 16.8894Q27.7883 16.8894 28.4446 16.3698Q29.1054 15.8503 29.4381 14.9662Q29.7753 14.0775 29.7753 12.9929Q29.7753 11.9173 29.4472 11.056Q29.1191 10.1901 28.4583 9.68426Q27.802 9.17385 26.8085 9.17385Q25.373 9.17385 24.6301 10.2311Q23.8919 11.2839 23.8919 12.9929ZM37.9967 18.2976Q36.5247 18.2976 35.4583 17.6459Q34.3964 16.9896 33.8222 15.8138Q33.248 14.638 33.248 13.0703Q33.248 11.5072 33.8222 10.3132Q34.3964 9.1146 35.4264 8.44468Q36.4563 7.7702 37.8372 7.7702Q38.6347 7.7702 39.4095 8.03452Q40.1842 8.29884 40.8177 8.89129Q41.4557 9.48374 41.8339 10.459Q42.2122 11.4343 42.2122 12.8607L42.2122 13.5215L34.8203 13.5215Q34.8749 15.153 35.7454 16.0235Q36.6158 16.8894 37.9967 16.8894Q38.9173 16.8894 39.5781 16.4929Q40.2434 16.0964 40.5397 15.2989L42.0527 15.7227Q41.6972 16.8757 40.6217 17.5866Q39.5462 18.2976 37.9967 18.2976ZM34.8203 12.1725L40.6217 12.1725Q40.6217 10.8783 39.8652 10.0261Q39.1087 9.17385 37.8372 9.17385Q36.944 9.17385 36.2877 9.59312Q35.6315 10.0078 35.2532 10.696Q34.8749 11.3796 34.8203 12.1725ZM48.7358 18.2976Q47.3048 18.2976 46.2703 17.6231Q45.2358 16.944 44.6752 15.7591Q44.1192 14.5697 44.1192 13.0476Q44.1192 11.4935 44.6934 10.3041Q45.2677 9.1146 46.2976 8.44468Q47.3276 7.7702 48.7084 7.7702Q49.7839 7.7702 50.6453 8.16668Q51.5066 8.56317 52.0535 9.27866Q52.6049 9.99416 52.7371 10.9512L51.1739 10.9512Q50.9962 10.2539 50.381 9.71616Q49.7703 9.17385 48.7358 9.17385Q47.364 9.17385 46.5255 10.2175Q45.6869 11.2611 45.6869 12.9929Q45.6869 14.7611 46.5118 15.8275Q47.3412 16.8894 48.7358 16.8894Q49.6518 16.8894 50.3035 16.42Q50.9552 15.9506 51.1739 15.112L52.7371 15.112Q52.6049 16.0144 52.0854 16.7344Q51.5658 17.4545 50.7136 17.8783Q49.8614 18.2976 48.7358 18.2976ZM59.4479 7.90236L59.4479 9.22853L57.2741 9.22853L57.2741 15.1667Q57.2741 15.8275 57.47 16.1556Q57.666 16.4838 57.9713 16.5931Q58.2812 16.7025 58.623 16.7025Q58.8828 16.7025 59.0469 16.6752Q59.2155 16.6433 59.3157 16.625L59.6348 18.0287Q59.4753 18.0879 59.1881 18.1517Q58.9056 18.2155 58.4681 18.2155Q57.8027 18.2155 57.1693 17.933Q56.5358 17.6459 56.1211 17.0625Q55.7064 16.4792 55.7064 15.5905L55.7064 9.22853L54.1706 9.22853L54.1706 7.90236L55.7064 7.90236L55.7064 5.4642L57.2741 5.4642L57.2741 7.90236L59.4479 7.90236ZM64.8048 18.3203Q63.8341 18.3203 63.0457 17.9558Q62.2573 17.5866 61.7924 16.8894Q61.3276 16.1875 61.3276 15.194Q61.3276 14.319 61.6739 13.7722Q62.0203 13.2253 62.5945 12.9154Q63.1733 12.6009 63.8706 12.446Q64.5724 12.291 65.2788 12.1953Q66.2085 12.0768 66.7872 12.0176Q67.3706 11.9538 67.6349 11.8034Q67.9038 11.6485 67.9038 11.2702L67.9038 11.2155Q67.9038 10.2357 67.3706 9.69338Q66.8374 9.1465 65.7573 9.1465Q64.6362 9.1465 63.9982 9.63869Q63.3647 10.1309 63.1049 10.6869L61.6193 10.1537Q62.0203 9.22853 62.6857 8.709Q63.351 8.18491 64.144 7.97983Q64.937 7.7702 65.7026 7.7702Q66.1948 7.7702 66.8328 7.88869Q67.4754 8.00262 68.0724 8.36265Q68.674 8.71811 69.0704 9.44273Q69.4715 10.1628 69.4715 11.375L69.4715 18.0834L67.9038 18.0834L67.9038 16.7025L67.8263 16.7025Q67.6668 17.0352 67.2931 17.4134Q66.924 17.7917 66.3087 18.056Q65.6935 18.3203 64.8048 18.3203ZM65.0418 16.9167Q65.9715 16.9167 66.6095 16.5521Q67.2475 16.1875 67.5756 15.6133Q67.9038 15.0345 67.9038 14.3965L67.9038 12.9655Q67.8081 13.084 67.4708 13.1797Q67.1381 13.2754 66.7006 13.3483Q66.2677 13.4167 65.8575 13.4668Q65.4519 13.517 65.2013 13.5489Q64.5906 13.6309 64.062 13.8086Q63.5379 13.9818 63.2143 14.3282Q62.8953 14.6745 62.8953 15.2715Q62.8953 16.0873 63.5014 16.502Q64.1075 16.9167 65.0418 16.9167ZM76.4707 18.2976Q75.0397 18.2976 74.0052 17.6231Q72.9707 16.944 72.4101 15.7591Q71.8541 14.5697 71.8541 13.0476Q71.8541 11.4935 72.4283 10.3041Q73.0026 9.1146 74.0325 8.44468Q75.0625 7.7702 76.4433 7.7702Q77.5188 7.7702 78.3802 8.16668Q79.2415 8.56317 79.7884 9.27866Q80.3398 9.99416 80.472 10.9512L78.9088 10.9512Q78.7311 10.2539 78.1158 9.71616Q77.5052 9.17385 76.4707 9.17385Q75.0989 9.17385 74.2604 10.2175Q73.4218 11.2611 73.4218 12.9929Q73.4218 14.7611 74.2467 15.8275Q75.0761 16.8894 76.4707 16.8894Q77.3867 16.8894 78.0384 16.42Q78.6901 15.9506 78.9088 15.112L80.472 15.112Q80.3398 16.0144 79.8203 16.7344Q79.3007 17.4545 78.4485 17.8783Q77.5963 18.2976 76.4707 18.2976ZM89.1698 13.9226L89.1698 7.90236L90.7329 7.90236L90.7329 18.0834L89.1698 18.0834L89.1698 16.3607L89.065 16.3607Q88.7049 17.1354 87.9484 17.6778Q87.1965 18.2155 86.0435 18.2155Q84.6079 18.2155 83.6782 17.2676Q82.7531 16.3197 82.7531 14.3692L82.7531 7.90236L84.3163 7.90236L84.3163 14.2643Q84.3163 15.3809 84.9406 16.0417Q85.5695 16.7025 86.5448 16.7025Q87.1281 16.7025 87.7342 16.4063Q88.3404 16.1101 88.7551 15.4948Q89.1698 14.875 89.1698 13.9226ZM95.161 4.50717L95.161 18.0834L93.5978 18.0834L93.5978 4.50717L95.161 4.50717ZM101.025 18.3203Q100.054 18.3203 99.2654 17.9558Q98.477 17.5866 98.0122 16.8894Q97.5473 16.1875 97.5473 15.194Q97.5473 14.319 97.8937 13.7722Q98.2401 13.2253 98.8143 12.9154Q99.3931 12.6009 100.09 12.446Q100.792 12.291 101.499 12.1953Q102.428 12.0768 103.007 12.0176Q103.59 11.9538 103.855 11.8034Q104.124 11.6485 104.124 11.2702L104.124 11.2155Q104.124 10.2357 103.59 9.69338Q103.057 9.1465 101.977 9.1465Q100.856 9.1465 100.218 9.63869Q99.5845 10.1309 99.3247 10.6869L97.839 10.1537Q98.2401 9.22853 98.9054 8.709Q99.5708 8.18491 100.364 7.97983Q101.157 7.7702 101.922 7.7702Q102.415 7.7702 103.053 7.88869Q103.695 8.00262 104.292 8.36265Q104.894 8.71811 105.29 9.44273Q105.691 10.1628 105.691 11.375L105.691 18.0834L104.124 18.0834L104.124 16.7025L104.046 16.7025Q103.887 17.0352 103.513 17.4134Q103.144 17.7917 102.528 18.056Q101.913 18.3203 101.025 18.3203ZM101.262 16.9167Q102.191 16.9167 102.829 16.5521Q103.467 16.1875 103.795 15.6133Q104.124 15.0345 104.124 14.3965L104.124 12.9655Q104.028 13.084 103.691 13.1797Q103.358 13.2754 102.92 13.3483Q102.487 13.4167 102.077 13.4668Q101.672 13.517 101.421 13.5489Q100.81 13.6309 100.282 13.8086Q99.7576 13.9818 99.4341 14.3282Q99.1151 14.6745 99.1151 15.2715Q99.1151 16.0873 99.7212 16.502Q100.327 16.9167 101.262 16.9167ZM108.552 18.0834L108.552 7.90236L110.065 7.90236L110.065 9.43817L110.17 9.43817Q110.448 8.68166 111.177 8.21225Q111.907 7.74285 112.823 7.74285Q112.996 7.74285 113.251 7.75197Q113.511 7.75653 113.643 7.7702L113.643 9.36069Q113.565 9.33791 113.283 9.29689Q113 9.25588 112.69 9.25588Q111.574 9.25588 110.845 9.93036Q110.116 10.6048 110.116 11.6393L110.116 18.0834L108.552 18.0834Z" fill="#000000" />
    </g>
    <g id="text23" transform="translate(229.273 540.876)">
      <path d="M2.20118 4.50717L6.22983 15.9369L6.38933 15.9369L10.4225 4.50717L12.1452 4.50717L7.15952 18.0834L5.4642 18.0834L0.478516 4.50717L2.20118 4.50717ZM16.0964 18.3203Q15.1257 18.3203 14.3373 17.9558Q13.5489 17.5866 13.084 16.8894Q12.6192 16.1875 12.6192 15.194Q12.6192 14.319 12.9655 13.7722Q13.3119 13.2253 13.8861 12.9154Q14.4649 12.6009 15.1621 12.446Q15.864 12.291 16.5703 12.1953Q17.5 12.0768 18.0788 12.0176Q18.6621 11.9538 18.9265 11.8034Q19.1953 11.6485 19.1953 11.2702L19.1953 11.2155Q19.1953 10.2357 18.6621 9.69338Q18.1289 9.1465 17.0489 9.1465Q15.9278 9.1465 15.2897 9.63869Q14.6563 10.1309 14.3965 10.6869L12.9108 10.1537Q13.3119 9.22853 13.9772 8.709Q14.6426 8.18491 15.4356 7.97983Q16.2285 7.7702 16.9942 7.7702Q17.4864 7.7702 18.1244 7.88869Q18.767 8.00262 19.364 8.36265Q19.9655 8.71811 20.362 9.44273Q20.7631 10.1628 20.7631 11.375L20.7631 18.0834L19.1953 18.0834L19.1953 16.7025L19.1179 16.7025Q18.9584 17.0352 18.5847 17.4134Q18.2155 17.7917 17.6003 18.056Q16.9851 18.3203 16.0964 18.3203ZM16.3334 16.9167Q17.2631 16.9167 17.9011 16.5521Q18.5391 16.1875 18.8672 15.6133Q19.1953 15.0345 19.1953 14.3965L19.1953 12.9655Q19.0996 13.084 18.7624 13.1797Q18.4297 13.2754 17.9922 13.3483Q17.5593 13.4167 17.1491 13.4668Q16.7435 13.517 16.4929 13.5489Q15.8822 13.6309 15.3535 13.8086Q14.8295 13.9818 14.5059 14.3282Q14.1869 14.6745 14.1869 15.2715Q14.1869 16.0873 14.793 16.502Q15.3991 16.9167 16.3334 16.9167ZM23.6242 18.0834L23.6242 7.90236L25.1372 7.90236L25.1372 9.43817L25.2421 9.43817Q25.5201 8.68166 26.2492 8.21225Q26.9784 7.74285 27.8944 7.74285Q28.0676 7.74285 28.3228 7.75197Q28.5826 7.75653 28.7147 7.7702L28.7147 9.36069Q28.6372 9.33791 28.3547 9.29689Q28.0721 9.25588 27.7622 9.25588Q26.6457 9.25588 25.9165 9.93036Q25.1874 10.6048 25.1874 11.6393L25.1874 18.0834L23.6242 18.0834ZM30.5712 18.0834L30.5712 7.90236L32.1343 7.90236L32.1343 18.0834L30.5712 18.0834ZM31.3687 6.20249Q30.9084 6.20249 30.5803 5.89259Q30.2522 5.58269 30.2522 5.14519Q30.2522 4.70769 30.5803 4.39779Q30.9084 4.08334 31.3687 4.08334Q31.8245 4.08334 32.1526 4.39779Q32.4807 4.70769 32.4807 5.14519Q32.4807 5.58269 32.1526 5.89259Q31.8245 6.20249 31.3687 6.20249ZM37.9979 18.3203Q37.0272 18.3203 36.2388 17.9558Q35.4504 17.5866 34.9856 16.8894Q34.5207 16.1875 34.5207 15.194Q34.5207 14.319 34.8671 13.7722Q35.2134 13.2253 35.7876 12.9154Q36.3664 12.6009 37.0637 12.446Q37.7655 12.291 38.4719 12.1953Q39.4016 12.0768 39.9804 12.0176Q40.5637 11.9538 40.828 11.8034Q41.0969 11.6485 41.0969 11.2702L41.0969 11.2155Q41.0969 10.2357 40.5637 9.69338Q40.0305 9.1465 38.9504 9.1465Q37.8293 9.1465 37.1913 9.63869Q36.5578 10.1309 36.2981 10.6869L34.8124 10.1537Q35.2134 9.22853 35.8788 8.709Q36.5442 8.18491 37.3371 7.97983Q38.1301 7.7702 38.8957 7.7702Q39.3879 7.7702 40.0259 7.88869Q40.6685 8.00262 41.2655 8.36265Q41.8671 8.71811 42.2636 9.44273Q42.6646 10.1628 42.6646 11.375L42.6646 18.0834L41.0969 18.0834L41.0969 16.7025L41.0194 16.7025Q40.8599 17.0352 40.4862 17.4134Q40.1171 17.7917 39.5018 18.056Q38.8866 18.3203 37.9979 18.3203ZM38.2349 16.9167Q39.1646 16.9167 39.8026 16.5521Q40.4407 16.1875 40.7688 15.6133Q41.0969 15.0345 41.0969 14.3965L41.0969 12.9655Q41.0012 13.084 40.664 13.1797Q40.3313 13.2754 39.8938 13.3483Q39.4608 13.4167 39.0507 13.4668Q38.6451 13.517 38.3944 13.5489Q37.7837 13.6309 37.2551 13.8086Q36.731 13.9818 36.4074 14.3282Q36.0884 14.6745 36.0884 15.2715Q36.0884 16.0873 36.6945 16.502Q37.3007 16.9167 38.2349 16.9167ZM49.3721 18.2976Q48.1006 18.2976 47.1254 17.6504Q46.1501 17.0033 45.5987 15.8229Q45.0473 14.638 45.0473 13.0202Q45.0473 11.416 45.5987 10.2357Q46.1501 9.05536 47.1299 8.41278Q48.1098 7.7702 49.3995 7.7702Q50.393 7.7702 50.9717 8.09832Q51.5505 8.42645 51.8604 8.84116Q52.1703 9.25588 52.3389 9.5202L52.4757 9.5202L52.4757 4.50717L54.0388 4.50717L54.0388 18.0834L52.5258 18.0834L52.5258 16.5202L52.3389 16.5202Q52.1703 16.7982 51.8513 17.222Q51.5323 17.6413 50.9398 17.9694Q50.3519 18.2976 49.3721 18.2976ZM49.5818 16.8894Q50.9945 16.8894 51.7465 15.8093Q52.4984 14.7246 52.4984 12.9929Q52.4984 11.2839 51.7556 10.2311Q51.0173 9.17385 49.5818 9.17385Q48.5883 9.17385 47.9275 9.68426Q47.2712 10.1901 46.9431 11.056Q46.615 11.9173 46.615 12.9929Q46.615 14.0775 46.9476 14.9662Q47.2849 15.8503 47.9411 16.3698Q48.6019 16.8894 49.5818 16.8894ZM61.2509 18.2976Q59.8701 18.2976 58.831 17.6413Q57.7965 16.9851 57.2132 15.8047Q56.6344 14.6244 56.6344 13.0476Q56.6344 11.4525 57.2132 10.2676Q57.7965 9.0827 58.831 8.42645Q59.8701 7.7702 61.2509 7.7702Q62.6272 7.7702 63.6663 8.42645Q64.7054 9.0827 65.2841 10.2676Q65.8629 11.4525 65.8629 13.0476Q65.8629 14.6244 65.2841 15.8047Q64.7054 16.9851 63.6663 17.6413Q62.6272 18.2976 61.2509 18.2976ZM61.2509 16.8894Q62.2991 16.8894 62.9736 16.3561Q63.6481 15.8184 63.9716 14.9434Q64.2998 14.0684 64.2998 13.0476Q64.2998 12.0267 63.9716 11.1472Q63.6481 10.263 62.9736 9.72072Q62.2991 9.17385 61.2509 9.17385Q60.2028 9.17385 59.5237 9.72072Q58.8492 10.263 58.5257 11.1472Q58.2021 12.0267 58.2021 13.0476Q58.2021 14.0684 58.5257 14.9434Q58.8492 15.8184 59.5237 16.3561Q60.2028 16.8894 61.2509 16.8894Z" fill="#000000" />
    </g>
    <g id="text24" transform="translate(471.046 540.876)">
      <path d="M9.06903 7.90236Q8.95054 6.8952 8.09832 6.3392Q7.25066 5.77866 6.02019 5.77866Q4.66668 5.77866 3.8418 6.42124Q3.02149 7.05926 3.02149 8.03452Q3.02149 8.76369 3.46811 9.2103Q3.91928 9.65692 4.52996 9.90757Q5.14519 10.1537 5.64649 10.2858L7.02736 10.6595Q7.556 10.7962 8.2077 11.0423Q8.86395 11.2884 9.46095 11.7123Q10.0625 12.1315 10.4544 12.7878Q10.8464 13.444 10.8464 14.3965Q10.8464 15.4994 10.2722 16.3881Q9.69793 17.2767 8.59962 17.8008Q7.50587 18.3203 5.93816 18.3203Q3.75066 18.3203 2.4655 17.2904Q1.18034 16.2559 1.06185 14.5834L2.75717 14.5834Q2.82553 15.3535 3.2767 15.8548Q3.73243 16.3516 4.4297 16.5977Q5.13152 16.8392 5.93816 16.8392Q6.88152 16.8392 7.62892 16.5293Q8.38087 16.2194 8.81838 15.668Q9.25588 15.112 9.25588 14.3692Q9.25588 13.6947 8.87762 13.2709Q8.49936 12.847 7.87957 12.5827Q7.26434 12.3184 6.54884 12.1179L4.88087 11.6393Q3.28581 11.1836 2.35612 10.336Q1.43099 9.48374 1.43099 8.11199Q1.43099 6.97267 2.05079 6.12045Q2.67058 5.26824 3.71876 4.79428Q4.77149 4.32032 6.07032 4.32032Q7.38283 4.32032 8.40366 4.78972Q9.4245 5.25457 10.0261 6.06577Q10.6276 6.87241 10.6595 7.90236L9.06903 7.90236ZM17.6065 18.2976Q16.1345 18.2976 15.0681 17.6459Q14.0062 16.9896 13.432 15.8138Q12.8578 14.638 12.8578 13.0703Q12.8578 11.5072 13.432 10.3132Q14.0062 9.1146 15.0362 8.44468Q16.0661 7.7702 17.447 7.7702Q18.2445 7.7702 19.0193 8.03452Q19.794 8.29884 20.4275 8.89129Q21.0655 9.48374 21.4438 10.459Q21.822 11.4343 21.822 12.8607L21.822 13.5215L14.4301 13.5215Q14.4848 15.153 15.3552 16.0235Q16.2256 16.8894 17.6065 16.8894Q18.5271 16.8894 19.1879 16.4929Q19.8533 16.0964 20.1495 15.2989L21.6625 15.7227Q21.307 16.8757 20.2315 17.5866Q19.156 18.2976 17.6065 18.2976ZM14.4301 12.1725L20.2315 12.1725Q20.2315 10.8783 19.475 10.0261Q18.7185 9.17385 17.447 9.17385Q16.5538 9.17385 15.8975 9.59312Q15.2413 10.0078 14.863 10.696Q14.4848 11.3796 14.4301 12.1725ZM28.3182 22.112Q26.6138 22.112 25.6203 21.4922Q24.6314 20.8724 24.1574 20.0703L25.4016 19.1953Q25.6158 19.4733 25.9393 19.8334Q26.2629 20.198 26.828 20.4668Q27.3977 20.7357 28.3182 20.7357Q29.5533 20.7357 30.3553 20.1387Q31.1574 19.5417 31.1574 18.2702L31.1574 16.2012L31.0207 16.2012Q30.8521 16.4792 30.5331 16.8894Q30.2186 17.295 29.6307 17.6094Q29.0474 17.9239 28.0539 17.9239Q26.8189 17.9239 25.8391 17.3405Q24.8638 16.7572 24.2941 15.6452Q23.729 14.5287 23.729 12.9382Q23.729 11.375 24.2805 10.2129Q24.8319 9.04624 25.8117 8.40822Q26.7915 7.7702 28.0813 7.7702Q29.0747 7.7702 29.6581 8.09832Q30.246 8.42645 30.5604 8.84116Q30.8749 9.25588 31.0481 9.5202L31.2076 9.5202L31.2076 7.90236L32.7206 7.90236L32.7206 18.375Q32.7206 19.6875 32.1236 20.5124Q31.5311 21.3373 30.5331 21.7246Q29.5396 22.112 28.3182 22.112ZM28.2635 16.5202Q29.6763 16.5202 30.4283 15.5632Q31.1802 14.6016 31.1802 12.9108Q31.1802 11.2611 30.4374 10.2175Q29.6991 9.17385 28.2635 9.17385Q27.2701 9.17385 26.6092 9.67971Q25.953 10.181 25.6249 11.0332Q25.2967 11.8809 25.2967 12.9108Q25.2967 14.5059 26.0441 15.513Q26.7915 16.5202 28.2635 16.5202ZM41.9992 13.9226L41.9992 7.90236L43.5624 7.90236L43.5624 18.0834L41.9992 18.0834L41.9992 16.3607L41.8944 16.3607Q41.5344 17.1354 40.7779 17.6778Q40.0259 18.2155 38.8729 18.2155Q37.4374 18.2155 36.5077 17.2676Q35.5826 16.3197 35.5826 14.3692L35.5826 7.90236L37.1457 7.90236L37.1457 14.2643Q37.1457 15.3809 37.7701 16.0417Q38.399 16.7025 39.3742 16.7025Q39.9576 16.7025 40.5637 16.4063Q41.1698 16.1101 41.5845 15.4948Q41.9992 14.875 41.9992 13.9226ZM46.4273 18.0834L46.4273 7.90236L47.9403 7.90236L47.9403 9.43817L48.0451 9.43817Q48.3231 8.68166 49.0523 8.21225Q49.7815 7.74285 50.6975 7.74285Q50.8706 7.74285 51.1259 7.75197Q51.3856 7.75653 51.5178 7.7702L51.5178 9.36069Q51.4403 9.33791 51.1578 9.29689Q50.8752 9.25588 50.5653 9.25588Q49.4488 9.25588 48.7196 9.93036Q47.9904 10.6048 47.9904 11.6393L47.9904 18.0834L46.4273 18.0834ZM57.1941 18.2976Q55.8132 18.2976 54.7742 17.6413Q53.7397 16.9851 53.1563 15.8047Q52.5776 14.6244 52.5776 13.0476Q52.5776 11.4525 53.1563 10.2676Q53.7397 9.0827 54.7742 8.42645Q55.8132 7.7702 57.1941 7.7702Q58.5704 7.7702 59.6095 8.42645Q60.6485 9.0827 61.2273 10.2676Q61.8061 11.4525 61.8061 13.0476Q61.8061 14.6244 61.2273 15.8047Q60.6485 16.9851 59.6095 17.6413Q58.5704 18.2976 57.1941 18.2976ZM57.1941 16.8894Q58.2423 16.8894 58.9168 16.3561Q59.5912 15.8184 59.9148 14.9434Q60.2429 14.0684 60.2429 13.0476Q60.2429 12.0267 59.9148 11.1472Q59.5912 10.263 58.9168 9.72072Q58.2423 9.17385 57.1941 9.17385Q56.1459 9.17385 55.4669 9.72072Q54.7924 10.263 54.4688 11.1472Q54.1453 12.0267 54.1453 13.0476Q54.1453 14.0684 54.4688 14.9434Q54.7924 15.8184 55.4669 16.3561Q56.1459 16.8894 57.1941 16.8894Z" fill="#000000" />
    </g>
    <g id="text16" transform="translate(323 282)">
      <g id="tspan2" transform="translate(14.898 0)">
        <path d="M10.5547 4.50717L12.1953 4.50717L12.1953 13.4942Q12.1953 14.8887 11.5436 15.9779Q10.8919 17.0671 9.70249 17.696Q8.51759 18.3203 6.92254 18.3203Q5.32293 18.3203 4.13347 17.696Q2.94857 17.0671 2.29688 15.9779Q1.64519 14.8887 1.64519 13.4942L1.64519 4.50717L3.28581 4.50717L3.28581 13.362Q3.28581 14.8568 4.25196 15.8229Q5.22267 16.7845 6.92254 16.7845Q8.62241 16.7845 9.58856 15.8229Q10.5547 14.8568 10.5547 13.362L10.5547 4.50717ZM16.8351 11.9584L16.8351 18.0834L15.2719 18.0834L15.2719 7.90236L16.785 7.90236L16.785 9.49286L16.9171 9.49286Q17.2726 8.71811 18.0017 8.24416Q18.7309 7.7702 19.8885 7.7702Q21.4288 7.7702 22.3813 8.71811Q23.3338 9.66603 23.3338 11.612L23.3338 18.0834L21.7706 18.0834L21.7706 11.7214Q21.7706 10.5182 21.1463 9.84833Q20.5219 9.17385 19.4373 9.17385Q18.3162 9.17385 17.5734 9.90301Q16.8351 10.6276 16.8351 11.9584ZM31.6604 18.0834L31.6604 4.50717L33.2235 4.50717L33.2235 9.5202L33.3557 9.5202Q33.5289 9.25588 33.8342 8.84116Q34.1441 8.42645 34.7229 8.09832Q35.3062 7.7702 36.2997 7.7702Q37.5849 7.7702 38.5647 8.41278Q39.5491 9.05536 40.096 10.2357Q40.6474 11.416 40.6474 13.0202Q40.6474 14.638 40.096 15.8229Q39.5491 17.0033 38.5738 17.6504Q37.5986 18.2976 36.3271 18.2976Q35.3427 18.2976 34.7548 17.9694Q34.1669 17.6413 33.8479 17.222Q33.5289 16.7982 33.3557 16.5202L33.1689 16.5202L33.1689 18.0834L31.6604 18.0834ZM33.1962 12.9929Q33.1962 14.7246 33.9482 15.8093Q34.7001 16.8894 36.1129 16.8894Q37.0927 16.8894 37.7535 16.3698Q38.4143 15.8503 38.747 14.9662Q39.0842 14.0775 39.0842 12.9929Q39.0842 11.9173 38.7561 11.056Q38.428 10.1901 37.7672 9.68426Q37.1064 9.17385 36.1129 9.17385Q34.6819 9.17385 33.939 10.2311Q33.1962 11.2839 33.1962 12.9929ZM46.032 18.3203Q45.0613 18.3203 44.2729 17.9558Q43.4845 17.5866 43.0197 16.8894Q42.5548 16.1875 42.5548 15.194Q42.5548 14.319 42.9012 13.7722Q43.2475 13.2253 43.8218 12.9154Q44.4005 12.6009 45.0978 12.446Q45.7996 12.291 46.506 12.1953Q47.4357 12.0768 48.0145 12.0176Q48.5978 11.9538 48.8621 11.8034Q49.131 11.6485 49.131 11.2702L49.131 11.2155Q49.131 10.2357 48.5978 9.69338Q48.0646 9.1465 46.9845 9.1465Q45.8634 9.1465 45.2254 9.63869Q44.5919 10.1309 44.3322 10.6869L42.8465 10.1537Q43.2475 9.22853 43.9129 8.709Q44.5783 8.18491 45.3712 7.97983Q46.1642 7.7702 46.9298 7.7702Q47.422 7.7702 48.06 7.88869Q48.7026 8.00262 49.2996 8.36265Q49.9012 8.71811 50.2977 9.44273Q50.6987 10.1628 50.6987 11.375L50.6987 18.0834L49.131 18.0834L49.131 16.7025L49.0535 16.7025Q48.894 17.0352 48.5203 17.4134Q48.1512 17.7917 47.536 18.056Q46.9207 18.3203 46.032 18.3203ZM46.269 16.9167Q47.1987 16.9167 47.8367 16.5521Q48.4748 16.1875 48.8029 15.6133Q49.131 15.0345 49.131 14.3965L49.131 12.9655Q49.0353 13.084 48.6981 13.1797Q48.3654 13.2754 47.9279 13.3483Q47.4949 13.4167 47.0848 13.4668Q46.6792 13.517 46.4285 13.5489Q45.8179 13.6309 45.2892 13.8086Q44.7651 13.9818 44.4415 14.3282Q44.1225 14.6745 44.1225 15.2715Q44.1225 16.0873 44.7287 16.502Q45.3348 16.9167 46.269 16.9167ZM53.5599 18.0834L53.5599 7.90236L55.123 7.90236L55.123 18.0834L53.5599 18.0834ZM54.3574 6.20249Q53.8971 6.20249 53.569 5.89259Q53.2409 5.58269 53.2409 5.14519Q53.2409 4.70769 53.569 4.39779Q53.8971 4.08334 54.3574 4.08334Q54.8131 4.08334 55.1413 4.39779Q55.4694 4.70769 55.4694 5.14519Q55.4694 5.58269 55.1413 5.89259Q54.8131 6.20249 54.3574 6.20249ZM59.5511 4.50717L59.5511 18.0834L57.9879 18.0834L57.9879 4.50717L59.5511 4.50717ZM66.6861 18.2976Q65.2141 18.2976 64.1477 17.6459Q63.0859 16.9896 62.5117 15.8138Q61.9374 14.638 61.9374 13.0703Q61.9374 11.5072 62.5117 10.3132Q63.0859 9.1146 64.1158 8.44468Q65.1458 7.7702 66.5266 7.7702Q67.3242 7.7702 68.0989 8.03452Q68.8736 8.29884 69.5071 8.89129Q70.1451 9.48374 70.5234 10.459Q70.9016 11.4343 70.9016 12.8607L70.9016 13.5215L63.5097 13.5215Q63.5644 15.153 64.4348 16.0235Q65.3053 16.8894 66.6861 16.8894Q67.6067 16.8894 68.2675 16.4929Q68.9329 16.0964 69.2291 15.2989L70.7421 15.7227Q70.3867 16.8757 69.3111 17.5866Q68.2356 18.2976 66.6861 18.2976ZM63.5097 12.1725L69.3111 12.1725Q69.3111 10.8783 68.5546 10.0261Q67.7981 9.17385 66.5266 9.17385Q65.6334 9.17385 64.9772 9.59312Q64.3209 10.0078 63.9426 10.696Q63.5644 11.3796 63.5097 12.1725Z" fill="#000000" />
      </g>
      <g id="tspan4" transform="translate(0 23.333)">
        <path d="M1.43099 18.0834L1.43099 7.90236L2.99415 7.90236L2.99415 18.0834L1.43099 18.0834ZM2.22852 6.20249Q1.76823 6.20249 1.44011 5.89259Q1.11198 5.58269 1.11198 5.14519Q1.11198 4.70769 1.44011 4.39779Q1.76823 4.08334 2.22852 4.08334Q2.68425 4.08334 3.01238 4.39779Q3.3405 4.70769 3.3405 5.14519Q3.3405 5.58269 3.01238 5.89259Q2.68425 6.20249 2.22852 6.20249ZM7.42218 11.9584L7.42218 18.0834L5.85903 18.0834L5.85903 7.90236L7.37205 7.90236L7.37205 9.49286L7.50422 9.49286Q7.85968 8.71811 8.58885 8.24416Q9.31802 7.7702 10.4756 7.7702Q12.0159 7.7702 12.9684 8.71811Q13.9209 9.66603 13.9209 11.612L13.9209 18.0834L12.3577 18.0834L12.3577 11.7214Q12.3577 10.5182 11.7334 9.84833Q11.109 9.17385 10.0244 9.17385Q8.90331 9.17385 8.16047 9.90301Q7.42218 10.6276 7.42218 11.9584ZM21.213 7.90236L21.213 9.22853L19.0392 9.22853L19.0392 15.1667Q19.0392 15.8275 19.2351 16.1556Q19.4311 16.4838 19.7364 16.5931Q20.0463 16.7025 20.3881 16.7025Q20.6479 16.7025 20.8119 16.6752Q20.9806 16.6433 21.0808 16.625L21.3998 18.0287Q21.2403 18.0879 20.9532 18.1517Q20.6707 18.2155 20.2332 18.2155Q19.5678 18.2155 18.9343 17.933Q18.3009 17.6459 17.8862 17.0625Q17.4714 16.4792 17.4714 15.5905L17.4714 9.22853L15.9356 9.22853L15.9356 7.90236L17.4714 7.90236L17.4714 5.4642L19.0392 5.4642L19.0392 7.90236L21.213 7.90236ZM27.7353 18.2976Q26.2633 18.2976 25.1969 17.6459Q24.135 16.9896 23.5608 15.8138Q22.9866 14.638 22.9866 13.0703Q22.9866 11.5072 23.5608 10.3132Q24.135 9.1146 25.165 8.44468Q26.1949 7.7702 27.5758 7.7702Q28.3733 7.7702 29.1481 8.03452Q29.9228 8.29884 30.5563 8.89129Q31.1943 9.48374 31.5726 10.459Q31.9508 11.4343 31.9508 12.8607L31.9508 13.5215L24.5589 13.5215Q24.6136 15.153 25.484 16.0235Q26.3545 16.8894 27.7353 16.8894Q28.6559 16.8894 29.3167 16.4929Q29.9821 16.0964 30.2783 15.2989L31.7913 15.7227Q31.4358 16.8757 30.3603 17.5866Q29.2848 18.2976 27.7353 18.2976ZM24.5589 12.1725L30.3603 12.1725Q30.3603 10.8783 29.6038 10.0261Q28.8473 9.17385 27.5758 9.17385Q26.6826 9.17385 26.0263 9.59312Q25.3701 10.0078 24.9918 10.696Q24.6136 11.3796 24.5589 12.1725ZM34.3364 18.0834L34.3364 7.90236L35.8494 7.90236L35.8494 9.43817L35.9542 9.43817Q36.2322 8.68166 36.9614 8.21225Q37.6905 7.74285 38.6065 7.74285Q38.7797 7.74285 39.0349 7.75197Q39.2947 7.75653 39.4269 7.7702L39.4269 9.36069Q39.3494 9.33791 39.0668 9.29689Q38.7843 9.25588 38.4744 9.25588Q37.3578 9.25588 36.6287 9.93036Q35.8995 10.6048 35.8995 11.6393L35.8995 18.0834L34.3364 18.0834ZM45.2353 18.2976Q43.7633 18.2976 42.6969 17.6459Q41.6351 16.9896 41.0609 15.8138Q40.4866 14.638 40.4866 13.0703Q40.4866 11.5072 41.0609 10.3132Q41.6351 9.1146 42.665 8.44468Q43.695 7.7702 45.0758 7.7702Q45.8734 7.7702 46.6481 8.03452Q47.4228 8.29884 48.0563 8.89129Q48.6943 9.48374 49.0726 10.459Q49.4508 11.4343 49.4508 12.8607L49.4508 13.5215L42.0589 13.5215Q42.1136 15.153 42.984 16.0235Q43.8545 16.8894 45.2353 16.8894Q46.1559 16.8894 46.8167 16.4929Q47.4821 16.0964 47.7783 15.2989L49.2913 15.7227Q48.9359 16.8757 47.8603 17.5866Q46.7848 18.2976 45.2353 18.2976ZM42.0589 12.1725L47.8603 12.1725Q47.8603 10.8783 47.1038 10.0261Q46.3473 9.17385 45.0758 9.17385Q44.1826 9.17385 43.5264 9.59312Q42.8701 10.0078 42.4918 10.696Q42.1136 11.3796 42.0589 12.1725ZM59.0506 10.181L57.6424 10.5775Q57.4373 10.0488 56.9542 9.584Q56.4712 9.11916 55.4412 9.11916Q54.507 9.11916 53.8872 9.54754Q53.2674 9.97593 53.2674 10.6322Q53.2674 11.2155 53.6912 11.5528Q54.1196 11.89 55.0174 12.1179L56.5304 12.487Q59.2329 13.1524 59.2329 15.2442Q59.2329 16.1192 58.7316 16.8119Q58.2348 17.5 57.337 17.9011Q56.4438 18.2976 55.2589 18.2976Q53.7003 18.2976 52.6795 17.6231Q51.6586 16.944 51.3852 15.6452L52.8709 15.2715Q53.2902 16.9167 55.2316 16.9167Q56.3253 16.9167 56.9725 16.4519Q57.6196 15.9825 57.6196 15.3262Q57.6196 14.2461 56.1066 13.8952L54.4113 13.4942Q53.0122 13.166 52.3559 12.4688Q51.7042 11.7669 51.7042 10.7142Q51.7042 9.84833 52.1919 9.18752Q52.6795 8.52671 53.5226 8.14845Q54.3702 7.7702 55.4412 7.7702Q56.9542 7.7702 57.8201 8.43556Q58.686 9.09637 59.0506 10.181ZM64.5927 18.3203Q63.622 18.3203 62.8336 17.9558Q62.0452 17.5866 61.5803 16.8894Q61.1155 16.1875 61.1155 15.194Q61.1155 14.319 61.4618 13.7722Q61.8082 13.2253 62.3824 12.9154Q62.9612 12.6009 63.6584 12.446Q64.3603 12.291 65.0666 12.1953Q65.9963 12.0768 66.5751 12.0176Q67.1584 11.9538 67.4228 11.8034Q67.6916 11.6485 67.6916 11.2702L67.6916 11.2155Q67.6916 10.2357 67.1584 9.69338Q66.6252 9.1465 65.5452 9.1465Q64.4241 9.1465 63.786 9.63869Q63.1526 10.1309 62.8928 10.6869L61.4071 10.1537Q61.8082 9.22853 62.4735 8.709Q63.1389 8.18491 63.9319 7.97983Q64.7248 7.7702 65.4905 7.7702Q65.9827 7.7702 66.6207 7.88869Q67.2633 8.00262 67.8603 8.36265Q68.4618 8.71811 68.8583 9.44273Q69.2594 10.1628 69.2594 11.375L69.2594 18.0834L67.6916 18.0834L67.6916 16.7025L67.6142 16.7025Q67.4547 17.0352 67.081 17.4134Q66.7118 17.7917 66.0966 18.056Q65.4814 18.3203 64.5927 18.3203ZM64.8297 16.9167Q65.7594 16.9167 66.3974 16.5521Q67.0354 16.1875 67.3635 15.6133Q67.6916 15.0345 67.6916 14.3965L67.6916 12.9655Q67.5959 13.084 67.2587 13.1797Q66.926 13.2754 66.4885 13.3483Q66.0556 13.4167 65.6454 13.4668Q65.2398 13.517 64.9892 13.5489Q64.3785 13.6309 63.8498 13.8086Q63.3258 13.9818 63.0022 14.3282Q62.6832 14.6745 62.6832 15.2715Q62.6832 16.0873 63.2893 16.502Q63.8954 16.9167 64.8297 16.9167ZM73.6837 11.9584L73.6837 18.0834L72.1205 18.0834L72.1205 7.90236L73.6335 7.90236L73.6335 9.49286L73.7657 9.49286Q74.1212 8.71811 74.8503 8.24416Q75.5795 7.7702 76.7371 7.7702Q78.2774 7.7702 79.2299 8.71811Q80.1824 9.66603 80.1824 11.612L80.1824 18.0834L78.6192 18.0834L78.6192 11.7214Q78.6192 10.5182 77.9949 9.84833Q77.3705 9.17385 76.2859 9.17385Q75.1648 9.17385 74.422 9.90301Q73.6837 10.6276 73.6837 11.9584ZM87.4745 7.90236L87.4745 9.22853L85.3006 9.22853L85.3006 15.1667Q85.3006 15.8275 85.4966 16.1556Q85.6926 16.4838 85.9979 16.5931Q86.3078 16.7025 86.6496 16.7025Q86.9094 16.7025 87.0734 16.6752Q87.2421 16.6433 87.3423 16.625L87.6613 18.0287Q87.5018 18.0879 87.2147 18.1517Q86.9322 18.2155 86.4947 18.2155Q85.8293 18.2155 85.1958 17.933Q84.5624 17.6459 84.1476 17.0625Q83.7329 16.4792 83.7329 15.5905L83.7329 9.22853L82.1971 9.22853L82.1971 7.90236L83.7329 7.90236L83.7329 5.4642L85.3006 5.4642L85.3006 7.90236L87.4745 7.90236ZM93.9968 18.2976Q92.5248 18.2976 91.4584 17.6459Q90.3965 16.9896 89.8223 15.8138Q89.2481 14.638 89.2481 13.0703Q89.2481 11.5072 89.8223 10.3132Q90.3965 9.1146 91.4265 8.44468Q92.4564 7.7702 93.8373 7.7702Q94.6348 7.7702 95.4096 8.03452Q96.1843 8.29884 96.8178 8.89129Q97.4558 9.48374 97.834 10.459Q98.2123 11.4343 98.2123 12.8607L98.2123 13.5215L90.8204 13.5215Q90.875 15.153 91.7455 16.0235Q92.6159 16.8894 93.9968 16.8894Q94.9174 16.8894 95.5782 16.4929Q96.2435 16.0964 96.5398 15.2989L98.0528 15.7227Q97.6973 16.8757 96.6218 17.5866Q95.5463 18.2976 93.9968 18.2976ZM90.8204 12.1725L96.6218 12.1725Q96.6218 10.8783 95.8653 10.0261Q95.1088 9.17385 93.8373 9.17385Q92.9441 9.17385 92.2878 9.59312Q91.6316 10.0078 91.2533 10.696Q90.875 11.3796 90.8204 12.1725Z" fill="#000000" />
      </g>
      <g id="tspan6" transform="translate(36.645 46.667)">
        <path d="M5.70118 18.2976Q4.22917 18.2976 3.16277 17.6459Q2.10092 16.9896 1.5267 15.8138Q0.952476 14.638 0.952476 13.0703Q0.952476 11.5072 1.5267 10.3132Q2.10092 9.1146 3.13087 8.44468Q4.16081 7.7702 5.54168 7.7702Q6.3392 7.7702 7.11395 8.03452Q7.88869 8.29884 8.52215 8.89129Q9.16017 9.48374 9.53843 10.459Q9.91668 11.4343 9.91668 12.8607L9.91668 13.5215L2.52474 13.5215Q2.57943 15.153 3.44988 16.0235Q4.32032 16.8894 5.70118 16.8894Q6.62176 16.8894 7.28257 16.4929Q7.94793 16.0964 8.24416 15.2989L9.75718 15.7227Q9.40171 16.8757 8.32619 17.5866Q7.25066 18.2976 5.70118 18.2976ZM2.52474 12.1725L8.32619 12.1725Q8.32619 10.8783 7.56967 10.0261Q6.81316 9.17385 5.54168 9.17385Q4.64845 9.17385 3.99219 9.59312Q3.33594 10.0078 2.95769 10.696Q2.57943 11.3796 2.52474 12.1725ZM19.5164 10.181L18.1082 10.5775Q17.9031 10.0488 17.4201 9.584Q16.937 9.11916 15.907 9.11916Q14.9728 9.11916 14.353 9.54754Q13.7332 9.97593 13.7332 10.6322Q13.7332 11.2155 14.157 11.5528Q14.5854 11.89 15.4832 12.1179L16.9962 12.487Q19.6987 13.1524 19.6987 15.2442Q19.6987 16.1192 19.1974 16.8119Q18.7007 17.5 17.8029 17.9011Q16.9097 18.2976 15.7248 18.2976Q14.1662 18.2976 13.1453 17.6231Q12.1245 16.944 11.8511 15.6452L13.3367 15.2715Q13.756 16.9167 15.6974 16.9167Q16.7912 16.9167 17.4383 16.4519Q18.0854 15.9825 18.0854 15.3262Q18.0854 14.2461 16.5724 13.8952L14.8771 13.4942Q13.478 13.166 12.8218 12.4688Q12.1701 11.7669 12.1701 10.7142Q12.1701 9.84833 12.6577 9.18752Q13.1453 8.52671 13.9884 8.14845Q14.8361 7.7702 15.907 7.7702Q17.4201 7.7702 18.286 8.43556Q19.1518 9.09637 19.5164 10.181ZM23.1991 18.1882Q22.7115 18.1882 22.3606 17.8373Q22.0097 17.4864 22.0097 16.9942Q22.0097 16.5065 22.3606 16.1556Q22.7115 15.8047 23.1991 15.8047Q23.6913 15.8047 24.0422 16.1556Q24.3932 16.5065 24.3932 16.9942Q24.3932 17.4864 24.0422 17.8373Q23.6913 18.1882 23.1991 18.1882ZM28.3431 18.1882Q27.8555 18.1882 27.5045 17.8373Q27.1536 17.4864 27.1536 16.9942Q27.1536 16.5065 27.5045 16.1556Q27.8555 15.8047 28.3431 15.8047Q28.8353 15.8047 29.1862 16.1556Q29.5371 16.5065 29.5371 16.9942Q29.5371 17.4864 29.1862 17.8373Q28.8353 18.1882 28.3431 18.1882ZM33.487 18.1882Q32.9994 18.1882 32.6485 17.8373Q32.2976 17.4864 32.2976 16.9942Q32.2976 16.5065 32.6485 16.1556Q32.9994 15.8047 33.487 15.8047Q33.9792 15.8047 34.3301 16.1556Q34.681 16.5065 34.681 16.9942Q34.681 17.4864 34.3301 17.8373Q33.9792 18.1882 33.487 18.1882Z" fill="#000000" />
      </g>
    </g>
  </g>
</svg>